<svg width="17" height="14" viewBox="0 0 17 14" fill="none" xmlns="http://www.w3.org/2000/svg">
<path d="M14.7333 2.83333C14.7333 2.98362 14.6736 3.12776 14.5674 3.23403C14.4611 3.3403 14.317 3.4 14.1667 3.4H11.9C11.7497 3.4 11.6056 3.3403 11.4993 3.23403C11.393 3.12776 11.3333 2.98362 11.3333 2.83333C11.3333 2.68304 11.393 2.53891 11.4993 2.43264C11.6056 2.32637 11.7497 2.26667 11.9 2.26667H14.1667C14.317 2.26667 14.4611 2.32637 14.5674 2.43264C14.6736 2.53891 14.7333 2.68304 14.7333 2.83333ZM14.1667 4.53333H11.9C11.7497 4.53333 11.6056 4.59304 11.4993 4.69931C11.393 4.80558 11.3333 4.94971 11.3333 5.1C11.3333 5.25029 11.393 5.39442 11.4993 5.50069C11.6056 5.60696 11.7497 5.66667 11.9 5.66667H14.1667C14.317 5.66667 14.4611 5.60696 14.5674 5.50069C14.6736 5.39442 14.7333 5.25029 14.7333 5.1C14.7333 4.94971 14.6736 4.80558 14.5674 4.69931C14.4611 4.59304 14.317 4.53333 14.1667 4.53333ZM17 1.13333V12.4667C17 12.7672 16.8806 13.0555 16.6681 13.2681C16.4555 13.4806 16.1672 13.6 15.8667 13.6H10.2C9.89942 13.6 9.61115 13.4806 9.39861 13.2681C9.18607 13.0555 9.06667 12.7672 9.06667 12.4667V11.3333H6.23333V12.4667H7.36667C7.51696 12.4667 7.66109 12.5264 7.76736 12.6326C7.87363 12.7389 7.93333 12.883 7.93333 13.0333C7.93333 13.1836 7.87363 13.3278 7.76736 13.434C7.66109 13.5403 7.51696 13.6 7.36667 13.6H3.96667C3.81638 13.6 3.67224 13.5403 3.56597 13.434C3.4597 13.3278 3.4 13.1836 3.4 13.0333C3.4 12.883 3.4597 12.7389 3.56597 12.6326C3.67224 12.5264 3.81638 12.4667 3.96667 12.4667H5.1V11.3333H1.7C1.24913 11.3333 0.81673 11.1542 0.497918 10.8354C0.179107 10.5166 0 10.0842 0 9.63333V4.53333C0 4.08247 0.179107 3.65006 0.497918 3.33125C0.81673 3.01244 1.24913 2.83333 1.7 2.83333H9.06667V1.13333C9.06667 0.832755 9.18607 0.544487 9.39861 0.331946C9.61115 0.119404 9.89942 0 10.2 0H15.8667C16.1672 0 16.4555 0.119404 16.6681 0.331946C16.8806 0.544487 17 0.832755 17 1.13333ZM9.06667 10.2V3.96667H1.7C1.54971 3.96667 1.40558 4.02637 1.29931 4.13264C1.19304 4.23891 1.13333 4.38304 1.13333 4.53333V9.63333C1.13333 9.78362 1.19304 9.92776 1.29931 10.034C1.40558 10.1403 1.54971 10.2 1.7 10.2H9.06667ZM15.8667 12.4667V1.13333H10.2V12.4667H15.8667ZM13.0333 9.63333C12.8652 9.63333 12.7009 9.68319 12.5611 9.77658C12.4213 9.86998 12.3124 10.0027 12.248 10.1581C12.1837 10.3134 12.1669 10.4843 12.1997 10.6492C12.2325 10.814 12.3134 10.9655 12.4323 11.0844C12.5512 11.2032 12.7026 11.2842 12.8675 11.317C13.0324 11.3498 13.2033 11.333 13.3586 11.2686C13.5139 11.2043 13.6467 11.0953 13.7401 10.9556C13.8335 10.8158 13.8833 10.6514 13.8833 10.4833C13.8833 10.2579 13.7938 10.0417 13.6344 9.88229C13.475 9.72289 13.2588 9.63333 13.0333 9.63333Z" fill="#363536"/>
</svg>
