<svg width="16" height="16" viewBox="0 0 16 16" fill="none" xmlns="http://www.w3.org/2000/svg">
<path d="M5.88415 3.30593C5.74497 3.16711 5.57307 3.06559 5.38431 3.01072C5.19555 2.95586 4.996 2.94943 4.8041 2.99202C4.6122 3.0346 4.43411 3.12484 4.28627 3.2544C4.13844 3.38396 4.02562 3.54867 3.95823 3.73333L0.0700789 14.4281C0.00620593 14.6045 -0.0144258 14.7936 0.00991548 14.9796C0.0342568 15.1656 0.102861 15.343 0.209968 15.497C0.317076 15.651 0.459562 15.777 0.625464 15.8646C0.791367 15.9521 0.975845 15.9985 1.16341 16C1.30151 15.9991 1.43839 15.974 1.56786 15.9259L12.2619 12.037C12.4466 11.9697 12.6114 11.857 12.7411 11.7092C12.8707 11.5614 12.961 11.3833 13.0037 11.1914C13.0464 10.9995 13.04 10.7999 12.9852 10.6111C12.9304 10.4223 12.8289 10.2503 12.6901 10.1111L5.88415 3.30593ZM5.26712 13.3215L2.67452 10.7289L3.64934 8.04667L7.94934 12.3467L5.26712 13.3215ZM1.19304 14.803L2.23008 11.9578L4.04119 13.7689L1.19304 14.803ZM9.18119 11.8993L4.09675 6.81481L5.05971 4.15778L11.8323 10.9304L9.18119 11.8993ZM9.47749 4.74074C9.48862 4.34013 9.58562 3.94657 9.76193 3.58667C10.1545 2.80222 10.8953 2.37037 11.8479 2.37037C12.3442 2.37037 12.6627 2.20074 12.859 1.8363C12.9623 1.63241 13.0216 1.40905 13.033 1.18074C13.0336 1.02358 13.0966 0.873081 13.2082 0.762365C13.3197 0.65165 13.4707 0.589781 13.6279 0.59037C13.785 0.59096 13.9355 0.653959 14.0462 0.765508C14.1569 0.877057 14.2188 1.02802 14.2182 1.18519C14.2182 2.13778 13.5871 3.55556 11.8479 3.55556C11.3516 3.55556 11.033 3.72519 10.8367 4.08963C10.7334 4.29352 10.6741 4.51688 10.6627 4.74519C10.6624 4.82301 10.6468 4.90001 10.6167 4.97179C10.5867 5.04358 10.5428 5.10874 10.4875 5.16356C10.4323 5.21838 10.3668 5.26179 10.2948 5.2913C10.2228 5.32081 10.1457 5.33585 10.0679 5.33556C9.99004 5.33526 9.91303 5.31965 9.84125 5.2896C9.76946 5.25955 9.7043 5.21565 9.64948 5.16042C9.59466 5.10518 9.55126 5.03969 9.52174 4.96769C9.49223 4.89568 9.47719 4.81856 9.47749 4.74074ZM7.69971 2.37037V0.592593C7.69971 0.435427 7.76214 0.284699 7.87327 0.173566C7.98441 0.0624337 8.13514 0 8.2923 0C8.44947 0 8.6002 0.0624337 8.71133 0.173566C8.82246 0.284699 8.88489 0.435427 8.88489 0.592593V2.37037C8.88489 2.52754 8.82246 2.67826 8.71133 2.7894C8.6002 2.90053 8.44947 2.96296 8.2923 2.96296C8.13514 2.96296 7.98441 2.90053 7.87327 2.7894C7.76214 2.67826 7.69971 2.52754 7.69971 2.37037ZM15.2301 8.46963C15.2851 8.52469 15.3287 8.59004 15.3585 8.66196C15.3882 8.73388 15.4035 8.81095 15.4035 8.88878C15.4034 8.96661 15.3881 9.04367 15.3583 9.11556C15.3285 9.18745 15.2848 9.25277 15.2297 9.30778C15.1746 9.36279 15.1093 9.40641 15.0374 9.43616C14.9655 9.46592 14.8884 9.48121 14.8106 9.48118C14.7327 9.48114 14.6557 9.46578 14.5838 9.43596C14.5119 9.40615 14.4466 9.36246 14.3916 9.30741L13.2064 8.12222C13.0952 8.01103 13.0327 7.86022 13.0327 7.70296C13.0327 7.54571 13.0952 7.3949 13.2064 7.2837C13.3176 7.17251 13.4684 7.11004 13.6256 7.11004C13.7829 7.11004 13.9337 7.17251 14.0449 7.2837L15.2301 8.46963ZM15.5908 5.30296L13.813 5.89556C13.6639 5.94526 13.5012 5.93369 13.3606 5.8634C13.22 5.79311 13.1131 5.66985 13.0634 5.52074C13.0137 5.37163 13.0253 5.20888 13.0956 5.0683C13.1659 4.92772 13.2891 4.82081 13.4382 4.77111L15.216 4.17852C15.3651 4.12882 15.5279 4.14038 15.6684 4.21067C15.809 4.28096 15.9159 4.40422 15.9656 4.55333C16.0153 4.70244 16.0038 4.86519 15.9335 5.00577C15.8632 5.14636 15.7399 5.25326 15.5908 5.30296Z" fill="#363536"/>
</svg>
