<svg width="16" height="14" viewBox="0 0 16 14" fill="none" xmlns="http://www.w3.org/2000/svg">
<path d="M4 7.42857H1.14286C0.991305 7.42857 0.84596 7.36837 0.738796 7.2612C0.631632 7.15404 0.571429 7.00869 0.571429 6.85714C0.571429 6.70559 0.631632 6.56024 0.738796 6.45308C0.84596 6.34592 0.991305 6.28571 1.14286 6.28571H3.69429L4.66714 4.82571C4.71931 4.74733 4.79003 4.68306 4.87302 4.63859C4.95601 4.59414 5.04871 4.57087 5.14286 4.57087C5.23701 4.57087 5.3297 4.59414 5.41269 4.63859C5.49569 4.68306 5.56641 4.74733 5.61857 4.82571L7.42857 7.54L8.09571 6.54C8.14794 6.46172 8.21869 6.39755 8.30168 6.35319C8.38467 6.30883 8.47733 6.28565 8.57143 6.28571H10.2857C10.4373 6.28571 10.5826 6.34592 10.6898 6.45308C10.7969 6.56024 10.8571 6.70559 10.8571 6.85714C10.8571 7.00869 10.7969 7.15404 10.6898 7.2612C10.5826 7.36837 10.4373 7.42857 10.2857 7.42857H8.87714L7.90429 8.88857C7.85212 8.96695 7.7814 9.03123 7.69841 9.07569C7.61542 9.12015 7.52272 9.14341 7.42857 9.14341C7.33442 9.14341 7.24173 9.12015 7.15873 9.07569C7.07574 9.03123 7.00502 8.96695 6.95286 8.88857L5.14286 6.17286L4.47571 7.17286C4.42365 7.2514 4.35297 7.31585 4.26997 7.36046C4.18698 7.40508 4.09423 7.42848 4 7.42857ZM11.5714 0C10.0964 0 8.805 0.634286 8 1.70643C7.195 0.634286 5.90357 0 4.42857 0C3.25445 0.00132338 2.12879 0.468329 1.29856 1.29856C0.468329 2.12879 0.00132338 3.25445 0 4.42857C0 4.48214 0 4.53571 0 4.58929C0.00473601 4.74084 0.0694819 4.8843 0.179994 4.98812C0.290507 5.09193 0.437733 5.14759 0.589286 5.14286C0.740838 5.13812 0.884302 5.07337 0.988117 4.96286C1.09193 4.85235 1.14759 4.70512 1.14286 4.55357C1.14286 4.51214 1.14286 4.47 1.14286 4.42857C1.14399 3.55749 1.49053 2.72242 2.10647 2.10647C2.72242 1.49053 3.55749 1.14399 4.42857 1.14286C5.81786 1.14286 6.98429 1.88286 7.47143 3.07143C7.51448 3.17623 7.58772 3.26588 7.68183 3.32896C7.77595 3.39205 7.8867 3.42573 8 3.42573C8.1133 3.42573 8.22405 3.39205 8.31817 3.32896C8.41228 3.26588 8.48552 3.17623 8.52857 3.07143C9.01571 1.88071 10.1821 1.14286 11.5714 1.14286C12.4425 1.14399 13.2776 1.49053 13.8935 2.10647C14.5095 2.72242 14.856 3.55749 14.8571 4.42857C14.8571 8.25786 9.30286 11.725 8 12.4857C7.22643 12.035 4.955 10.6286 3.23714 8.75643C3.1864 8.70108 3.12525 8.65628 3.05718 8.62457C2.98912 8.59286 2.91548 8.57486 2.84046 8.57162C2.76545 8.56837 2.69052 8.57992 2.61997 8.60563C2.54942 8.63133 2.48463 8.67068 2.42929 8.72143C2.37394 8.77217 2.32914 8.83332 2.29743 8.90139C2.26572 8.96945 2.24772 9.04309 2.24447 9.11811C2.24122 9.19312 2.25278 9.26805 2.27849 9.3386C2.30419 9.40915 2.34354 9.47394 2.39429 9.52929C4.62071 11.9579 7.60357 13.5779 7.72929 13.6457C7.8125 13.6905 7.90551 13.7139 8 13.7139C8.09449 13.7139 8.1875 13.6905 8.27071 13.6457C8.58643 13.4757 16 9.42857 16 4.42857C15.9987 3.25445 15.5317 2.12879 14.7014 1.29856C13.8712 0.468329 12.7456 0.00132338 11.5714 0Z" fill="#363536"/>
</svg>
