<svg width="18" height="13" viewBox="0 0 18 13" fill="none" xmlns="http://www.w3.org/2000/svg">
<path d="M11.5312 3.93757C11.9206 3.93757 12.3013 3.82211 12.625 3.60577C12.9488 3.38944 13.2011 3.08196 13.3502 2.72221C13.4992 2.36246 13.5382 1.9666 13.4622 1.5847C13.3862 1.20279 13.1987 0.851985 12.9234 0.576645C12.648 0.301306 12.2972 0.113797 11.9153 0.0378306C11.5334 -0.0381355 11.1376 0.000853042 10.7778 0.149866C10.4181 0.298879 10.1106 0.551223 9.89425 0.874989C9.67792 1.19875 9.56245 1.5794 9.56245 1.96879C9.56245 2.49094 9.76988 2.99171 10.1391 3.36093C10.5083 3.73015 11.0091 3.93757 11.5312 3.93757ZM11.5312 1.12502C11.6981 1.12502 11.8613 1.17451 12 1.26722C12.1388 1.35994 12.2469 1.49171 12.3108 1.64589C12.3746 1.80007 12.3913 1.96972 12.3588 2.1334C12.3262 2.29707 12.2459 2.44742 12.1279 2.56542C12.0099 2.68342 11.8595 2.76378 11.6958 2.79634C11.5322 2.8289 11.3625 2.81219 11.2083 2.74833C11.0542 2.68446 10.9224 2.57632 10.8297 2.43756C10.737 2.2988 10.6875 2.13567 10.6875 1.96879C10.6875 1.74501 10.7764 1.53039 10.9346 1.37216C11.0928 1.21392 11.3075 1.12502 11.5312 1.12502ZM17.9214 12.0884L14.085 5.61386C13.9861 5.44519 13.8446 5.30549 13.6746 5.20874C13.5047 5.11199 13.3124 5.06159 13.1168 5.0626C12.9214 5.06157 12.7291 5.11197 12.5593 5.20873C12.3895 5.30549 12.2481 5.4452 12.1493 5.61386L10.3099 8.71891L7.15702 3.36803C7.05767 3.19918 6.91595 3.0592 6.74588 2.96195C6.57581 2.86469 6.3833 2.81353 6.18739 2.81353C5.99148 2.81353 5.79896 2.86469 5.6289 2.96195C5.45883 3.0592 5.31711 3.19918 5.21776 3.36803L0.0778224 12.0898C0.0275108 12.1752 0.000667792 12.2724 1.22997e-05 12.3715C-0.000643192 12.4706 0.0249121 12.5682 0.0740897 12.6543C0.123267 12.7404 0.19432 12.8119 0.280052 12.8617C0.365784 12.9115 0.463148 12.9377 0.562285 12.9377H17.4376C17.5369 12.9377 17.6344 12.9114 17.7202 12.8615C17.8061 12.8116 17.8772 12.7399 17.9263 12.6536C17.9754 12.5673 18.0009 12.4696 18 12.3703C17.9991 12.271 17.972 12.1738 17.9214 12.0884ZM6.18739 3.93757L7.84469 6.75013H4.53009L6.18739 3.93757ZM1.54668 11.8127L3.86703 7.87515H8.50775L9.82543 10.1111L10.8281 11.8127H1.54668ZM12.1338 11.8127L10.9624 9.82425L13.1168 6.18762L16.4532 11.8127H12.1338Z" fill="#363536"/>
</svg>
