<svg width="15" height="15" viewBox="0 0 15 15" fill="none" xmlns="http://www.w3.org/2000/svg">
<path d="M14.4231 5.76482H13.8195C13.6745 4.189 12.946 2.7242 11.7769 1.65771C10.6078 0.591225 9.08247 0 7.5 0C5.91753 0 4.39216 0.591225 3.22306 1.65771C2.05396 2.7242 1.32549 4.189 1.18053 5.76482H0.576923C0.423914 5.76482 0.277171 5.8256 0.168977 5.93379C0.0607828 6.04199 0 6.18873 0 6.34174C0.00253486 7.71375 0.380115 9.05896 1.09191 10.2319C1.8037 11.4048 2.82261 12.3608 4.03846 12.9965V13.2648C4.03846 13.5708 4.16003 13.8643 4.37642 14.0807C4.5928 14.2971 4.88629 14.4187 5.19231 14.4187H9.80769C10.1137 14.4187 10.4072 14.2971 10.6236 14.0807C10.84 13.8643 10.9615 13.5708 10.9615 13.2648V12.9965C12.1774 12.3608 13.1963 11.4048 13.9081 10.2319C14.6199 9.05896 14.9975 7.71375 15 6.34174C15 6.18873 14.9392 6.04199 14.831 5.93379C14.7228 5.8256 14.5761 5.76482 14.4231 5.76482ZM12.6591 5.76482H8.95096C9.65042 4.71545 10.7086 3.95725 11.9272 3.63236C12.3256 4.28043 12.5756 5.00868 12.6591 5.76482ZM10.7798 2.31986C10.912 2.42804 11.0387 2.54222 11.1599 2.66241C9.62406 3.20267 8.35493 4.31299 7.61538 5.76337H5.48798C5.84856 4.75263 6.51241 3.87785 7.38882 3.25855C8.26524 2.63925 9.31148 2.30564 10.3846 2.30328C10.5166 2.30328 10.6486 2.30977 10.7798 2.31986ZM7.5 1.14943C7.96296 1.14974 8.42379 1.21207 8.87019 1.33477C7.783 1.60446 6.78612 2.15597 5.98001 2.93373C5.1739 3.71148 4.58705 4.68798 4.27861 5.76482H2.34087C2.48397 4.49621 3.08893 3.32463 4.04041 2.47343C4.99189 1.62223 6.22335 1.15095 7.5 1.14943ZM10.1438 12.111C10.0431 12.1572 9.95791 12.2314 9.89832 12.3248C9.83873 12.4181 9.80727 12.5267 9.80769 12.6374V13.2648H5.19231V12.6374C5.19273 12.5267 5.16127 12.4181 5.10168 12.3248C5.04209 12.2314 4.95689 12.1572 4.85625 12.111C3.84167 11.6441 2.96775 10.9186 2.32219 10.0072C1.67664 9.09582 1.28216 8.03067 1.17837 6.91866H13.8195C13.7159 8.03045 13.3217 9.09544 12.6766 10.0068C12.0314 10.9181 11.1579 11.6438 10.1438 12.111Z" fill="#363536"/>
</svg>
