<svg width="13" height="13" viewBox="0 0 13 13" fill="none" xmlns="http://www.w3.org/2000/svg">
<path d="M6.5 0C5.21442 0 3.95772 0.381218 2.8888 1.09545C1.81988 1.80968 0.986756 2.82484 0.494786 4.01256C0.00281635 5.20028 -0.125905 6.50721 0.124899 7.76809C0.375703 9.02896 0.994767 10.1872 1.90381 11.0962C2.81285 12.0052 3.97104 12.6243 5.23192 12.8751C6.49279 13.1259 7.79973 12.9972 8.98744 12.5052C10.1752 12.0132 11.1903 11.1801 11.9046 10.1112C12.6188 9.04229 13 7.78558 13 6.5C12.9982 4.77665 12.3128 3.12441 11.0942 1.90582C9.8756 0.687224 8.22335 0.00181989 6.5 0ZM7 11.9769V10C7 9.86739 6.94732 9.74021 6.85356 9.64645C6.75979 9.55268 6.63261 9.5 6.5 9.5C6.36739 9.5 6.24022 9.55268 6.14645 9.64645C6.05268 9.74021 6 9.86739 6 10V11.9769C4.72007 11.8584 3.52188 11.296 2.61296 10.387C1.70404 9.47812 1.14163 8.27993 1.02313 7H3C3.13261 7 3.25979 6.94732 3.35356 6.85355C3.44732 6.75979 3.5 6.63261 3.5 6.5C3.5 6.36739 3.44732 6.24021 3.35356 6.14645C3.25979 6.05268 3.13261 6 3 6H1.02313C1.14163 4.72007 1.70404 3.52188 2.61296 2.61296C3.52188 1.70404 4.72007 1.14163 6 1.02312V3C6 3.13261 6.05268 3.25979 6.14645 3.35355C6.24022 3.44732 6.36739 3.5 6.5 3.5C6.63261 3.5 6.75979 3.44732 6.85356 3.35355C6.94732 3.25979 7 3.13261 7 3V1.02312C8.27994 1.14163 9.47812 1.70404 10.387 2.61296C11.296 3.52188 11.8584 4.72007 11.9769 6H10C9.86739 6 9.74022 6.05268 9.64645 6.14645C9.55268 6.24021 9.5 6.36739 9.5 6.5C9.5 6.63261 9.55268 6.75979 9.64645 6.85355C9.74022 6.94732 9.86739 7 10 7H11.9769C11.8584 8.27993 11.296 9.47812 10.387 10.387C9.47812 11.296 8.27994 11.8584 7 11.9769Z" fill="#3E93D0"/>
</svg>
