<svg width="15" height="14" viewBox="0 0 15 14" fill="none" xmlns="http://www.w3.org/2000/svg">
<path d="M15 4.61538C15.0003 4.56174 14.993 4.50833 14.9784 4.45673L13.9435 0.836538C13.874 0.596332 13.7286 0.38507 13.5291 0.234298C13.3295 0.0835269 13.0866 0.00133625 12.8365 0H2.16346C1.91339 0.00133625 1.67046 0.0835269 1.47095 0.234298C1.27144 0.38507 1.12605 0.596332 1.05649 0.836538L0.0223562 4.45673C0.00745845 4.5083 -6.8035e-05 4.56171 4.63355e-07 4.61538V5.76923C4.63355e-07 6.21705 0.104265 6.65873 0.304537 7.05927C0.50481 7.45982 0.795589 7.80823 1.15385 8.07692V13.2692C1.15385 13.4222 1.21463 13.569 1.32282 13.6772C1.43102 13.7854 1.57776 13.8462 1.73077 13.8462H13.2692C13.4222 13.8462 13.569 13.7854 13.6772 13.6772C13.7854 13.569 13.8462 13.4222 13.8462 13.2692V8.07692C14.2044 7.80823 14.4952 7.45982 14.6955 7.05927C14.8957 6.65873 15 6.21705 15 5.76923V4.61538ZM2.16346 1.15385H12.8365L13.6601 4.03846H1.34207L2.16346 1.15385ZM5.76923 5.19231H9.23077V5.76923C9.23077 6.22826 9.04842 6.66849 8.72384 6.99307C8.39926 7.31765 7.95903 7.5 7.5 7.5C7.04097 7.5 6.60074 7.31765 6.27616 6.99307C5.95158 6.66849 5.76923 6.22826 5.76923 5.76923V5.19231ZM4.61539 5.19231V5.76923C4.61528 6.06685 4.53843 6.35942 4.39225 6.61868C4.24608 6.87793 4.03552 7.09511 3.78091 7.24924C3.5263 7.40337 3.23625 7.48923 2.93877 7.49855C2.6413 7.50786 2.34644 7.4403 2.08269 7.3024C2.04256 7.27116 1.99842 7.24545 1.95144 7.22596C1.70703 7.06949 1.50588 6.85407 1.3665 6.59951C1.22713 6.34496 1.154 6.05944 1.15385 5.76923V5.19231H4.61539ZM12.6923 12.6923H2.30769V8.59615C2.49762 8.63444 2.69087 8.65376 2.88462 8.65385C3.33244 8.65385 3.77411 8.54958 4.17466 8.34931C4.5752 8.14904 4.92361 7.85826 5.19231 7.5C5.461 7.85826 5.80942 8.14904 6.20996 8.34931C6.61051 8.54958 7.05218 8.65385 7.5 8.65385C7.94782 8.65385 8.3895 8.54958 8.79004 8.34931C9.19058 8.14904 9.539 7.85826 9.80769 7.5C10.0764 7.85826 10.4248 8.14904 10.8253 8.34931C11.2259 8.54958 11.6676 8.65385 12.1154 8.65385C12.3091 8.65376 12.5024 8.63444 12.6923 8.59615V12.6923ZM13.0478 7.22596C13.0015 7.24549 12.9578 7.27095 12.918 7.30168C12.6543 7.43972 12.3594 7.50742 12.0619 7.49822C11.7644 7.48903 11.4743 7.40326 11.2196 7.24919C10.9649 7.09513 10.7542 6.87799 10.608 6.61874C10.4617 6.35949 10.3848 6.06689 10.3846 5.76923V5.19231H13.8462V5.76923C13.8459 6.05951 13.7727 6.34507 13.6332 6.59963C13.4937 6.85419 13.2924 7.06957 13.0478 7.22596Z" fill="#363536"/>
</svg>
