<svg width="15" height="15" viewBox="0 0 15 15" fill="none" xmlns="http://www.w3.org/2000/svg">
<path d="M14.6054 2.33728L7.68239 0.0296098C7.56396 -0.00986994 7.43592 -0.00986994 7.31749 0.0296098L0.394468 2.33728C0.279593 2.37558 0.179679 2.44905 0.108881 2.54728C0.0380836 2.64552 -8.97272e-06 2.76354 1.58534e-09 2.88463V8.65382C1.58534e-09 8.80683 0.0607823 8.95357 0.168975 9.06176C0.277169 9.16995 0.42391 9.23074 0.576918 9.23074C0.729927 9.23074 0.876668 9.16995 0.984861 9.06176C1.09305 8.95357 1.15384 8.80683 1.15384 8.65382V3.68511L3.57617 4.49207C2.93259 5.53183 2.72793 6.78449 3.00714 7.975C3.28635 9.16552 4.02659 10.1966 5.06534 10.8418C3.76728 11.3509 2.64517 12.2718 1.8245 13.5309C1.78182 13.5944 1.75218 13.6657 1.73729 13.7407C1.7224 13.8156 1.72257 13.8929 1.73778 13.9678C1.75299 14.0427 1.78295 14.1139 1.8259 14.1771C1.86885 14.2404 1.92395 14.2944 1.98799 14.3362C2.05203 14.378 2.12373 14.4066 2.19893 14.4204C2.27413 14.4342 2.35132 14.433 2.42602 14.4167C2.50073 14.4004 2.57145 14.3694 2.63408 14.3256C2.69671 14.2817 2.74999 14.2259 2.79084 14.1612C3.87761 12.4939 5.59394 11.5384 7.49994 11.5384C9.40593 11.5384 11.1223 12.4939 12.209 14.1612C12.2936 14.287 12.4244 14.3744 12.5729 14.4046C12.7215 14.4347 12.8759 14.4052 13.0029 14.3224C13.1298 14.2396 13.2191 14.1101 13.2514 13.962C13.2837 13.8139 13.2564 13.6591 13.1754 13.5309C12.3547 12.2718 11.2283 11.3509 9.93453 10.8418C10.9723 10.1966 11.7118 9.16622 11.991 7.97657C12.2702 6.78693 12.0661 5.53513 11.4237 4.49568L14.6054 3.43559C14.7203 3.39732 14.8202 3.32386 14.8911 3.22562C14.9619 3.12738 15 3.00935 15 2.88824C15 2.76713 14.9619 2.6491 14.8911 2.55086C14.8202 2.45262 14.7203 2.37916 14.6054 2.34089V2.33728ZM10.9614 6.92306C10.9616 7.47031 10.832 8.0098 10.5833 8.49726C10.3346 8.98472 9.97382 9.40627 9.53064 9.72731C9.08746 10.0484 8.57447 10.2597 8.03377 10.3441C7.49307 10.4285 6.94006 10.3835 6.42013 10.2128C5.90019 10.0421 5.42813 9.75055 5.04269 9.36207C4.65725 8.9736 4.36941 8.49927 4.20278 7.978C4.03616 7.45674 3.9955 6.9034 4.08414 6.36338C4.17277 5.82335 4.38819 5.31204 4.7127 4.8714L7.31749 5.73677C7.43592 5.77625 7.56396 5.77625 7.68239 5.73677L10.2872 4.8714C10.7255 5.46562 10.9618 6.18468 10.9614 6.92306ZM7.49994 4.58438L2.40142 2.88463L7.49994 1.18489L12.5985 2.88463L7.49994 4.58438Z" fill="#363536"/>
</svg>
