<svg width="8" height="14" viewBox="0 0 8 14" fill="none" xmlns="http://www.w3.org/2000/svg">
<path d="M0.293235 7.70677C0.10547 7.51894 -1.05069e-05 7.26424 -1.05069e-05 6.99866C-1.05069e-05 6.73308 0.10547 6.47837 0.293235 6.29055L6.30263 0.281152C6.49153 0.0987082 6.74453 -0.00224413 7.00714 3.78618e-05C7.26974 0.00231985 7.52095 0.107654 7.70665 0.293352C7.89235 0.479051 7.99768 0.730256 7.99996 0.992864C8.00224 1.25547 7.90129 1.50847 7.71885 1.69737L2.41756 6.99866L7.71885 12.2999C7.90129 12.4888 8.00224 12.7418 7.99996 13.0045C7.99768 13.2671 7.89235 13.5183 7.70665 13.704C7.52095 13.8897 7.26974 13.995 7.00714 13.9973C6.74453 13.9996 6.49153 13.8986 6.30263 13.7162L0.293235 7.70677Z" fill="#3E93D0"/>
</svg>
