<svg width="7" height="12" viewBox="0 0 7 12" fill="none" xmlns="http://www.w3.org/2000/svg">
<path d="M6.60703 5.39297C6.76801 5.55398 6.85844 5.77235 6.85844 6.00003C6.85844 6.22771 6.76801 6.44607 6.60703 6.60709L1.45516 11.759C1.29322 11.9154 1.07632 12.0019 0.851185 12C0.626051 11.998 0.410692 11.9077 0.251492 11.7485C0.0922917 11.5893 0.00198882 11.3739 3.24692e-05 11.1488C-0.00192388 10.9237 0.0846229 10.7068 0.241032 10.5448L4.78585 6.00003L0.241032 1.45521C0.084623 1.29327 -0.00192377 1.07637 3.2592e-05 0.851241C0.00198895 0.626106 0.0922919 0.410748 0.251492 0.251548C0.410692 0.0923478 0.626051 0.00204489 0.851185 8.8448e-05C1.07632 -0.00186799 1.29322 0.0846783 1.45516 0.241088L6.60703 5.39297Z" fill="#F5F5F5"/>
</svg>
