<svg width="68" height="58" viewBox="0 0 68 58" fill="none" xmlns="http://www.w3.org/2000/svg">
<path d="M42.5603 27.1887L35.0603 19.6887C34.779 19.4077 34.3977 19.2498 34 19.2498C33.6024 19.2498 33.221 19.4077 32.9397 19.6887L25.4397 27.1887C25.2997 27.3277 25.1888 27.493 25.1133 27.6752C25.0378 27.8574 24.9993 28.0528 25 28.25V37.25C25 37.4489 25.079 37.6397 25.2197 37.7803C25.3603 37.921 25.5511 38 25.75 38H31.75C31.9489 38 32.1397 37.921 32.2803 37.7803C32.421 37.6397 32.5 37.4489 32.5 37.25V32H35.5V37.25C35.5 37.4489 35.579 37.6397 35.7197 37.7803C35.8603 37.921 36.0511 38 36.25 38H42.25C42.4489 38 42.6397 37.921 42.7803 37.7803C42.921 37.6397 43 37.4489 43 37.25V28.25C43.0007 28.0528 42.9622 27.8574 42.8867 27.6752C42.8112 27.493 42.7003 27.3277 42.5603 27.1887ZM41.5 36.5H37V31.25C37 31.0511 36.921 30.8603 36.7803 30.7197C36.6397 30.579 36.4489 30.5 36.25 30.5H31.75C31.5511 30.5 31.3603 30.579 31.2197 30.7197C31.079 30.8603 31 31.0511 31 31.25V36.5H26.5V28.25L34 20.75L41.5 28.25V36.5Z" fill="#3E93D0"/>
</svg>
