<svg width="20" height="17" viewBox="0 0 20 17" fill="none" xmlns="http://www.w3.org/2000/svg">
<path d="M18.4615 0H1.53846C1.13044 0 0.739122 0.162087 0.450605 0.450605C0.162087 0.739122 0 1.13044 0 1.53846V15.3846C0 15.7926 0.162087 16.184 0.450605 16.4725C0.739122 16.761 1.13044 16.9231 1.53846 16.9231H18.4615C18.8696 16.9231 19.2609 16.761 19.5494 16.4725C19.8379 16.184 20 15.7926 20 15.3846V1.53846C20 1.13044 19.8379 0.739122 19.5494 0.450605C19.2609 0.162087 18.8696 0 18.4615 0ZM18.4615 15.3846H1.53846V1.53846H18.4615V15.3846ZM15.3846 5.38462C15.3846 5.58863 15.3036 5.78428 15.1593 5.92854C15.0151 6.0728 14.8194 6.15385 14.6154 6.15385H5.38462C5.1806 6.15385 4.98495 6.0728 4.84069 5.92854C4.69643 5.78428 4.61538 5.58863 4.61538 5.38462C4.61538 5.1806 4.69643 4.98495 4.84069 4.84069C4.98495 4.69643 5.1806 4.61538 5.38462 4.61538H14.6154C14.8194 4.61538 15.0151 4.69643 15.1593 4.84069C15.3036 4.98495 15.3846 5.1806 15.3846 5.38462ZM15.3846 8.46154C15.3846 8.66555 15.3036 8.86121 15.1593 9.00547C15.0151 9.14973 14.8194 9.23077 14.6154 9.23077H5.38462C5.1806 9.23077 4.98495 9.14973 4.84069 9.00547C4.69643 8.86121 4.61538 8.66555 4.61538 8.46154C4.61538 8.25753 4.69643 8.06187 4.84069 7.91761C4.98495 7.77335 5.1806 7.69231 5.38462 7.69231H14.6154C14.8194 7.69231 15.0151 7.77335 15.1593 7.91761C15.3036 8.06187 15.3846 8.25753 15.3846 8.46154ZM15.3846 11.5385C15.3846 11.7425 15.3036 11.9381 15.1593 12.0824C15.0151 12.2266 14.8194 12.3077 14.6154 12.3077H5.38462C5.1806 12.3077 4.98495 12.2266 4.84069 12.0824C4.69643 11.9381 4.61538 11.7425 4.61538 11.5385C4.61538 11.3344 4.69643 11.1388 4.84069 10.9945C4.98495 10.8503 5.1806 10.7692 5.38462 10.7692H14.6154C14.8194 10.7692 15.0151 10.8503 15.1593 10.9945C15.3036 11.1388 15.3846 11.3344 15.3846 11.5385Z" fill="#3E93D0"/>
</svg>
