<svg width="68" height="58" viewBox="0 0 68 58" fill="none" xmlns="http://www.w3.org/2000/svg">
<g opacity="0.6">
<path d="M42.25 20.75H25.75C25.3522 20.75 24.9706 20.908 24.6893 21.1893C24.408 21.4706 24.25 21.8522 24.25 22.25V35.75C24.25 36.1478 24.408 36.5294 24.6893 36.8107C24.9706 37.092 25.3522 37.25 25.75 37.25H42.25C42.6478 37.25 43.0294 37.092 43.3107 36.8107C43.592 36.5294 43.75 36.1478 43.75 35.75V22.25C43.75 21.8522 43.592 21.4706 43.3107 21.1893C43.0294 20.908 42.6478 20.75 42.25 20.75ZM42.25 35.75H25.75V22.25H42.25V35.75ZM39.25 26C39.25 26.1989 39.171 26.3897 39.0303 26.5303C38.8897 26.671 38.6989 26.75 38.5 26.75H29.5C29.3011 26.75 29.1103 26.671 28.9697 26.5303C28.829 26.3897 28.75 26.1989 28.75 26C28.75 25.8011 28.829 25.6103 28.9697 25.4697C29.1103 25.329 29.3011 25.25 29.5 25.25H38.5C38.6989 25.25 38.8897 25.329 39.0303 25.4697C39.171 25.6103 39.25 25.8011 39.25 26ZM39.25 29C39.25 29.1989 39.171 29.3897 39.0303 29.5303C38.8897 29.671 38.6989 29.75 38.5 29.75H29.5C29.3011 29.75 29.1103 29.671 28.9697 29.5303C28.829 29.3897 28.75 29.1989 28.75 29C28.75 28.8011 28.829 28.6103 28.9697 28.4697C29.1103 28.329 29.3011 28.25 29.5 28.25H38.5C38.6989 28.25 38.8897 28.329 39.0303 28.4697C39.171 28.6103 39.25 28.8011 39.25 29ZM39.25 32C39.25 32.1989 39.171 32.3897 39.0303 32.5303C38.8897 32.671 38.6989 32.75 38.5 32.75H29.5C29.3011 32.75 29.1103 32.671 28.9697 32.5303C28.829 32.3897 28.75 32.1989 28.75 32C28.75 31.8011 28.829 31.6103 28.9697 31.4697C29.1103 31.329 29.3011 31.25 29.5 31.25H38.5C38.6989 31.25 38.8897 31.329 39.0303 31.4697C39.171 31.6103 39.25 31.8011 39.25 32Z" fill="#2F2F32"/>
</g>
</svg>
