<svg width="343" height="343" viewBox="0 0 343 343" fill="none" xmlns="http://www.w3.org/2000/svg">
<path d="M175.438 275.649C184.687 276.694 194.035 276.484 203.228 275.024C211.602 273.615 219.739 271.043 227.402 267.382C266.964 249.196 296.53 204.956 292.696 160.503C290.446 135.903 275.916 115.742 250.232 105.349C231.868 97.851 199.969 109.719 182.524 98.8457C164.318 87.4856 164.455 65.4718 126.54 56.252C102.42 50.2701 76.3861 71.5361 66.0275 91.677C53.6795 116.764 55.1956 144.499 62.3437 174.861C73.402 222.827 125.078 270.126 175.438 275.649Z" fill="#3892D2"/>
<g opacity="0.8">
<path d="M175.438 275.649C184.687 276.694 194.035 276.484 203.228 275.024C211.602 273.615 219.739 271.043 227.402 267.382C266.964 249.196 296.53 204.956 292.696 160.503C290.446 135.903 275.916 115.742 250.232 105.349C231.868 97.851 199.969 109.719 182.524 98.8457C164.318 87.4856 164.455 65.4718 126.54 56.252C102.42 50.2701 76.3861 71.5361 66.0275 91.677C53.6795 116.764 55.1956 144.499 62.3437 174.861C73.402 222.827 125.078 270.126 175.438 275.649Z" fill="white"/>
</g>
<mask id="mask0_18061_261" style="mask-type:luminance" maskUnits="userSpaceOnUse" x="59" y="66" width="217" height="157">
<path d="M125.277 222.559H59.4213V66.7821H125.277V222.559ZM200.518 66.7821H134.662V222.559H200.518V66.7821ZM275.765 66.7821H209.916V222.559H275.772L275.765 66.7821Z" fill="white"/>
</mask>
<g mask="url(#mask0_18061_261)">
<path d="M203.838 96.4585V97.4601H204.428C204.236 97.1308 204.051 96.7946 203.838 96.4585Z" fill="white"/>
<g opacity="0.2">
<path d="M145.816 97.3708C143.463 96.088 142.386 97.1582 141.542 96.088C140.698 95.0179 143.888 92.2396 137.481 89.4681C137.481 89.4681 137.056 83.4862 128.296 83.2941C119.535 83.102 121.888 89.2692 119.542 90.7647C117.196 92.2601 116.551 89.914 114.198 91.4095C111.845 92.905 112.915 95.8959 110.995 96.3213C109.074 96.7466 106.508 94.4005 104.135 95.8959C101.761 97.3914 101.782 98.6742 100.705 98.6742C99.6277 98.6742 97.5011 97.8167 96.2182 98.6742C94.9354 99.5317 93.4742 100.595 93.4742 100.595H147.517C147.517 100.595 148.176 98.6537 145.816 97.3708Z" fill="#3892D2"/>
</g>
<g opacity="0.2">
<path d="M298.129 121.847C295.776 120.565 294.699 121.635 293.855 120.565C293.011 119.494 296.201 116.723 289.794 113.945C289.794 113.945 289.368 107.963 280.608 107.771C271.848 107.579 274.201 113.753 271.855 115.248C269.509 116.743 268.864 114.391 266.511 115.886C264.158 117.381 265.228 120.372 263.307 120.798C261.386 121.223 258.821 118.877 256.447 120.372C254.074 121.868 254.094 123.151 253.017 123.151C251.94 123.151 249.814 122.293 248.531 123.151C247.248 124.008 245.787 125.072 245.787 125.072H299.83C299.83 125.072 300.468 123.13 298.129 121.847Z" fill="#3892D2"/>
</g>
<g opacity="0.2">
<path d="M157.698 121.422C156.23 120.619 155.564 121.285 155.029 120.619C154.494 119.954 156.497 118.218 152.498 116.503C152.498 116.503 152.23 112.765 146.763 112.634C141.295 112.504 142.763 116.366 141.275 117.299C139.786 118.232 139.409 116.764 137.941 117.704C136.473 118.644 137.138 120.503 135.945 120.77C134.751 121.038 133.139 119.57 131.678 120.503C130.217 121.436 130.21 122.231 129.544 122.231C128.879 122.231 127.541 121.703 126.738 122.231C125.936 122.76 125.01 123.432 125.01 123.432H158.74C158.74 123.432 159.152 122.218 157.698 121.422Z" fill="#3892D2"/>
</g>
<path opacity="0.1" d="M25.2859 228.102V170.979H59.2086V102.468H82.0524V117.505H94.8463V161.786H125.908V137.557H140.527V150.92H151.284H156.106L156.49 155.942H169.113V135.89H179.163V73.2305H203.831V97.4532H222.106V66.9399H242.206V141.734H263.225V169.305H277.899V229.33" fill="black"/>
<path opacity="0.1" d="M68.1883 117.306H63.2491V122.657H68.1883V117.306Z" fill="black"/>
<path opacity="0.1" d="M78.4852 117.306H73.546V122.657H78.4852V117.306Z" fill="black"/>
<path opacity="0.1" d="M68.1883 128.46H63.2491V133.811H68.1883V128.46Z" fill="black"/>
<path opacity="0.1" d="M78.4852 128.46H73.546V133.811H78.4852V128.46Z" fill="black"/>
<path opacity="0.1" d="M89.5984 128.46H84.6592V133.811H89.5984V128.46Z" fill="black"/>
<path opacity="0.1" d="M89.5984 139.615H84.6592V144.966H89.5984V139.615Z" fill="black"/>
<path opacity="0.1" d="M89.5984 150.769H84.6592V156.12H89.5984V150.769Z" fill="black"/>
<path opacity="0.1" d="M89.5984 161.923H84.6592V167.274H89.5984V161.923Z" fill="black"/>
<path opacity="0.1" d="M89.5984 173.078H84.6592V178.429H89.5984V173.078Z" fill="black"/>
<path opacity="0.1" d="M89.5984 184.232H84.6592V189.583H89.5984V184.232Z" fill="black"/>
<path opacity="0.1" d="M68.1883 139.615H63.2491V144.966H68.1883V139.615Z" fill="black"/>
<path opacity="0.1" d="M78.4852 139.615H73.546V144.966H78.4852V139.615Z" fill="black"/>
<path opacity="0.1" d="M68.1883 150.769H63.2491V156.12H68.1883V150.769Z" fill="black"/>
<path opacity="0.1" d="M78.4852 150.769H73.546V156.12H78.4852V150.769Z" fill="black"/>
<path opacity="0.1" d="M68.1883 161.923H63.2491V167.274H68.1883V161.923Z" fill="black"/>
<path opacity="0.1" d="M78.4852 161.923H73.546V167.274H78.4852V161.923Z" fill="black"/>
<path opacity="0.1" d="M68.1883 173.078H63.2491V178.429H68.1883V173.078Z" fill="black"/>
<path opacity="0.1" d="M116.771 167.274H111.832V172.625H116.771V167.274Z" fill="black"/>
<path opacity="0.1" d="M126.656 167.274H121.717V172.625H126.656V167.274Z" fill="black"/>
<path opacity="0.1" d="M230.331 80.7216H225.392V86.0724H230.331V80.7216Z" fill="black"/>
<path opacity="0.1" d="M236.512 80.7216H231.573V86.0724H236.512V80.7216Z" fill="black"/>
<path opacity="0.1" d="M230.331 91.876H225.392V97.2268H230.331V91.876Z" fill="black"/>
<path opacity="0.1" d="M236.512 91.876H231.573V97.2268H236.512V91.876Z" fill="black"/>
<path opacity="0.1" d="M230.331 103.03H225.392V108.381H230.331V103.03Z" fill="black"/>
<path opacity="0.1" d="M236.512 103.03H231.573V108.381H236.512V103.03Z" fill="black"/>
<path opacity="0.1" d="M230.331 114.185H225.392V119.535H230.331V114.185Z" fill="black"/>
<path opacity="0.1" d="M236.512 114.185H231.573V119.535H236.512V114.185Z" fill="black"/>
<path opacity="0.1" d="M230.331 125.339H225.392V130.69H230.331V125.339Z" fill="black"/>
<path opacity="0.1" d="M236.512 125.339H231.573V130.69H236.512V125.339Z" fill="black"/>
<path opacity="0.1" d="M188.341 125.339H183.402V130.69H188.341V125.339Z" fill="black"/>
<path opacity="0.1" d="M199.043 125.339H194.104V130.69H199.043V125.339Z" fill="black"/>
<path opacity="0.1" d="M209.751 125.339H204.812V130.69H209.751V125.339Z" fill="black"/>
<path opacity="0.1" d="M188.341 149.431H183.402V154.782H188.341V149.431Z" fill="black"/>
<path opacity="0.1" d="M199.043 149.431H194.104V154.782H199.043V149.431Z" fill="black"/>
<path opacity="0.1" d="M209.751 149.431H204.812V154.782H209.751V149.431Z" fill="black"/>
<path opacity="0.1" d="M188.341 173.524H183.402V178.874H188.341V173.524Z" fill="black"/>
<path opacity="0.1" d="M199.043 173.524H194.104V178.874H199.043V173.524Z" fill="black"/>
<path opacity="0.1" d="M209.751 173.524H204.812V178.874H209.751V173.524Z" fill="black"/>
<path opacity="0.1" d="M230.331 136.493H225.392V141.844H230.331V136.493Z" fill="black"/>
<path opacity="0.1" d="M236.512 136.493H231.573V141.844H236.512V136.493Z" fill="black"/>
<path opacity="0.1" d="M230.331 147.648H225.392V152.999H230.331V147.648Z" fill="black"/>
<path opacity="0.1" d="M236.512 147.648H231.573V152.999H236.512V147.648Z" fill="black"/>
<path opacity="0.1" d="M230.331 158.802H225.392V164.153H230.331V158.802Z" fill="black"/>
<path opacity="0.1" d="M236.512 158.802H231.573V164.153H236.512V158.802Z" fill="black"/>
<path opacity="0.1" d="M246.802 147.648H241.863V152.999H246.802V147.648Z" fill="black"/>
<path opacity="0.1" d="M258.334 147.648H253.395V152.999H258.334V147.648Z" fill="black"/>
<path opacity="0.1" d="M246.802 158.356H241.863V163.707H246.802V158.356Z" fill="black"/>
<path opacity="0.1" d="M258.334 158.356H253.395V163.707H258.334V158.356Z" fill="black"/>
<path opacity="0.1" d="M246.802 169.058H241.863V174.409H246.802V169.058Z" fill="black"/>
<path opacity="0.1" d="M258.334 169.058H253.395V174.409H258.334V169.058Z" fill="black"/>
<path opacity="0.1" d="M246.802 179.766H241.863V185.117H246.802V179.766Z" fill="black"/>
<path opacity="0.1" d="M258.334 179.766H253.395V185.117H258.334V179.766Z" fill="black"/>
<path opacity="0.1" d="M230.331 169.95H225.392V175.3H230.331V169.95Z" fill="black"/>
<path opacity="0.1" d="M236.512 169.95H231.573V175.3H236.512V169.95Z" fill="black"/>
<path opacity="0.1" d="M230.331 181.104H225.392V186.455H230.331V181.104Z" fill="black"/>
<path opacity="0.1" d="M236.512 181.104H231.573V186.455H236.512V181.104Z" fill="black"/>
<path opacity="0.1" d="M78.4852 173.078H73.546V178.429H78.4852V173.078Z" fill="black"/>
<path opacity="0.1" d="M68.1883 184.232H63.2491V189.583H68.1883V184.232Z" fill="black"/>
<path opacity="0.1" d="M78.4852 184.232H73.546V189.583H78.4852V184.232Z" fill="black"/>
<path opacity="0.1" d="M68.1883 195.387H63.2491V200.737H68.1883V195.387Z" fill="black"/>
<path opacity="0.1" d="M78.4852 195.387H73.546V200.737H78.4852V195.387Z" fill="black"/>
<path opacity="0.1" d="M68.1883 206.534H63.2491V211.885H68.1883V206.534Z" fill="black"/>
<path opacity="0.1" d="M78.4852 206.534H73.546V211.885H78.4852V206.534Z" fill="black"/>
</g>
<path d="M125.277 222.559H59.4213V66.7821H125.277V222.559ZM200.518 66.7821H134.662V222.559H200.518V66.7821ZM275.765 66.7821H209.916V222.559H275.772L275.765 66.7821Z" stroke="#263238" stroke-width="0.686" stroke-miterlimit="10"/>
<path d="M264.172 97.5286C262.868 93.2822 257.696 91.1762 254.026 89.5847C252.304 88.8438 251.81 87.5267 251.687 85.6882C251.687 85.4893 251.687 84.3162 251.728 83.1706H244.429C244.463 84.3231 244.49 85.4893 244.477 85.6882C244.346 87.5061 243.852 88.8438 242.137 89.5847C238.467 91.1762 233.295 93.2822 231.985 97.5286C231.656 98.5969 231.501 99.7109 231.525 100.828H264.631C264.662 99.7105 264.507 98.5954 264.172 97.5286Z" fill="#263238"/>
<path d="M248.572 47.9651H247.584V83.8429H248.572V47.9651Z" fill="#263238"/>
<path d="M105.603 97.5286C104.299 93.2822 99.127 91.1762 95.4569 89.5847C93.7351 88.8438 93.2411 87.5267 93.1177 85.6882C93.1177 85.4893 93.1177 84.3162 93.1588 83.1706H85.8598C85.8598 84.3231 85.9215 85.4893 85.9078 85.6882C85.7775 87.5061 85.2835 88.8438 83.5685 89.5847C79.8984 91.1762 74.726 93.2822 73.4157 97.5286C73.0875 98.5969 72.9323 99.7109 72.9561 100.828H106.062C106.093 99.7105 105.938 98.5954 105.603 97.5286Z" fill="#263238"/>
<path d="M90.0032 47.9651H89.0154V83.8429H90.0032V47.9651Z" fill="#263238"/>
<path d="M296.784 181.104C296.784 181.104 296.784 178.525 293.176 174.93C289.567 171.335 287.249 169.264 287.249 169.264C287.249 169.264 285.445 175.191 288.799 178.799C291.261 181.337 293.932 183.664 296.784 185.755V181.104Z" fill="#3892D2"/>
<path d="M291.55 197.218C291.55 197.218 291.55 194.646 287.942 191.044C284.333 187.443 282.015 185.371 282.015 185.371C282.015 185.371 280.21 191.298 283.558 194.906C286.024 197.441 288.697 199.766 291.55 201.855V197.218Z" fill="#3892D2"/>
<path d="M296.558 185.515C296.558 185.515 296.832 182.949 300.797 179.746C304.762 176.542 307.294 174.731 307.294 174.731C307.294 174.731 308.46 180.816 304.749 184.054C302.03 186.316 299.128 188.347 296.071 190.125L296.558 185.515Z" fill="#3892D2"/>
<path d="M290.233 204.524C290.233 204.524 290.775 202 295.035 199.228C299.295 196.457 302.018 194.927 302.018 194.927C302.018 194.927 302.54 201.101 298.513 203.927C295.57 205.893 292.467 207.61 289.238 209.058L290.233 204.524Z" fill="#3892D2"/>
<path d="M291.42 225.248C291.42 225.248 291.42 222.669 295.028 219.074C298.636 215.48 300.955 213.408 300.955 213.408C300.955 213.408 302.759 219.335 299.412 222.943C296.948 225.482 294.274 227.809 291.42 229.899V225.248Z" fill="#3892D2"/>
<path d="M291.365 230.304C291.365 230.304 291.728 227.752 288.669 223.67C285.609 219.589 283.606 217.215 283.606 217.215C283.606 217.215 280.979 222.827 283.784 226.874C285.865 229.737 288.18 232.422 290.706 234.9L291.365 230.304Z" fill="#3892D2"/>
<path d="M287.804 245.3C287.804 245.3 287.804 242.721 291.413 239.126C295.021 235.531 297.34 233.46 297.34 233.46C297.34 233.46 299.144 239.387 295.796 242.995C293.331 245.532 290.658 247.859 287.804 249.951V245.3Z" fill="#3892D2"/>
<path d="M290.212 258.89C290.212 258.89 289.561 256.399 292.14 251.995C294.719 247.591 296.434 245.005 296.434 245.005C296.434 245.005 299.679 250.287 297.353 254.609C295.614 257.689 293.618 260.618 291.385 263.362L290.212 258.89Z" fill="#3892D2"/>
<path d="M297.113 180.466C296.928 183.148 296.598 185.818 296.126 188.465C294.699 195.832 291.132 200.586 289.705 207.247C288.278 213.909 292.373 222.477 291.276 231.024C290.178 239.572 286.851 244.333 287.804 250.033C288.758 255.734 293.745 271.19 293.745 271.19" stroke="#263238" stroke-width="0.686" stroke-linecap="round" stroke-linejoin="round"/>
<path d="M296.523 187.23L300.413 184.246" stroke="#263238" stroke-width="0.686" stroke-linecap="round" stroke-linejoin="round"/>
<path d="M296.702 183.793L295.076 180.898" stroke="#263238" stroke-width="0.686" stroke-linecap="round" stroke-linejoin="round"/>
<path d="M289.924 206.939C289.924 206.939 293.176 204.497 296.524 202.054" stroke="#263238" stroke-width="0.686" stroke-linecap="round" stroke-linejoin="round"/>
<path d="M291.55 201.855C289.928 198.718 287.988 195.755 285.76 193.013" stroke="#263238" stroke-width="0.686" stroke-linecap="round" stroke-linejoin="round"/>
<path d="M291.55 228.911C293.407 225.487 295.753 222.351 298.513 219.602" stroke="#263238" stroke-width="0.686" stroke-linecap="round" stroke-linejoin="round"/>
<path d="M290.919 232.554C289.928 230.23 288.749 227.99 287.393 225.859C285.493 223.06 285.218 222.696 285.218 222.696" stroke="#263238" stroke-width="0.686" stroke-linecap="round" stroke-linejoin="round"/>
<path d="M287.804 250.033C288.628 247.986 289.607 246.004 290.734 244.106C291.863 242.348 293.134 240.685 294.534 239.133" stroke="#263238" stroke-width="0.686" stroke-linecap="round" stroke-linejoin="round"/>
<path d="M291.385 263.376C291.199 261.42 291.538 259.45 292.366 257.668C293.738 255.048 295.254 251.611 295.892 250.253" stroke="#263238" stroke-width="0.686" stroke-linecap="round" stroke-linejoin="round"/>
<path d="M267.341 215.555C267.341 215.555 267.06 213.936 268.933 211.281C270.805 208.626 272.033 207.083 272.033 207.083C272.033 207.083 273.81 210.609 272.102 213.257C270.828 215.113 269.403 216.862 267.842 218.484L267.341 215.555Z" fill="#3892D2"/>
<path d="M272.342 225.077C272.342 225.077 272.068 223.465 273.933 220.81C275.799 218.155 277.034 216.611 277.034 216.611C277.034 216.611 278.811 220.131 277.103 222.785C275.834 224.646 274.411 226.397 272.85 228.02L272.342 225.077Z" fill="#3892D2"/>
<path d="M267.958 218.285C267.958 218.285 267.513 216.707 264.672 215.123C261.832 213.538 260.056 212.687 260.056 212.687C260.056 212.687 259.987 216.632 262.663 218.258C264.616 219.379 266.658 220.338 268.768 221.125L267.958 218.285Z" fill="#3892D2"/>
<path d="M273.988 229.515C273.988 229.515 273.378 227.992 270.394 226.723C267.41 225.454 265.544 224.782 265.544 224.782C265.544 224.782 265.887 228.712 268.72 230.043C270.778 230.958 272.91 231.696 275.093 232.252L273.988 229.515Z" fill="#3892D2"/>
<path d="M275.498 242.638C275.498 242.638 275.216 241.026 272.562 239.153C269.907 237.281 268.226 236.245 268.226 236.245C268.226 236.245 267.739 240.155 270.229 242.055C272.052 243.38 273.981 244.55 275.998 245.554L275.498 242.638Z" fill="#3892D2"/>
<path d="M276.081 245.808C276.081 245.808 275.573 244.25 277.048 241.355C278.523 238.46 279.524 236.759 279.524 236.759C279.524 236.759 281.781 239.99 280.464 242.83C279.47 244.851 278.309 246.786 276.993 248.613L276.081 245.808Z" fill="#3892D2"/>
<path d="M280.608 258.842C280.608 258.842 280.8 257.216 283.352 255.192C285.904 253.168 287.516 252.043 287.516 252.043C287.516 252.043 288.202 255.919 285.842 257.957C284.1 259.383 282.241 260.661 280.286 261.778L280.608 258.842Z" fill="#3892D2"/>
<path d="M279.943 254.822C279.943 254.822 279.662 253.209 277.007 251.337C274.352 249.464 272.671 248.421 272.671 248.421C272.671 248.421 272.184 252.338 274.681 254.232C276.501 255.557 278.428 256.727 280.444 257.73L279.943 254.822Z" fill="#3892D2"/>
<path d="M279.888 263.609C279.888 263.609 280.032 261.97 277.933 259.493C275.834 257.017 274.503 255.576 274.503 255.576C274.503 255.576 273.042 259.239 274.969 261.709C276.397 263.451 277.966 265.071 279.662 266.552L279.888 263.609Z" fill="#3892D2"/>
<path d="M267.067 215.178C267.472 216.841 267.969 218.481 268.555 220.089C270.25 224.555 273.001 227.148 274.62 231.168C276.238 235.188 274.62 241.006 276.211 246.26C277.803 251.515 280.43 254.122 280.457 257.806C280.485 261.489 279.024 271.718 279.024 271.718" stroke="#263238" stroke-width="0.686" stroke-linecap="round" stroke-linejoin="round"/>
<path d="M268.171 219.355L265.406 217.901" stroke="#263238" stroke-width="0.686" stroke-linecap="round" stroke-linejoin="round"/>
<path d="M267.684 217.215L268.391 215.226" stroke="#263238" stroke-width="0.686" stroke-linecap="round" stroke-linejoin="round"/>
<path d="M274.448 230.997C274.448 230.997 272.143 229.824 269.776 228.651" stroke="#263238" stroke-width="0.686" stroke-linecap="round" stroke-linejoin="round"/>
<path d="M272.877 227.992C273.555 225.849 274.449 223.78 275.546 221.818" stroke="#263238" stroke-width="0.686" stroke-linecap="round" stroke-linejoin="round"/>
<path d="M275.813 244.957C274.277 243.009 272.465 241.294 270.435 239.867" stroke="#263238" stroke-width="0.686" stroke-linecap="round" stroke-linejoin="round"/>
<path d="M276.602 247.152C276.968 245.588 277.464 244.058 278.084 242.576C278.976 240.608 279.106 240.354 279.106 240.354" stroke="#263238" stroke-width="0.686" stroke-linecap="round" stroke-linejoin="round"/>
<path d="M280.327 260.584C281.224 259.471 282.218 258.44 283.297 257.504C283.983 256.996 284.628 256.434 285.225 255.823" stroke="#263238" stroke-width="0.686" stroke-linecap="round" stroke-linejoin="round"/>
<path d="M280.457 257.792C279.718 256.587 278.888 255.44 277.974 254.362C277.073 253.385 276.096 252.481 275.052 251.659" stroke="#263238" stroke-width="0.686" stroke-linecap="round" stroke-linejoin="round"/>
<path d="M279.655 266.552C279.561 265.304 279.137 264.104 278.427 263.074C277.288 261.579 275.95 259.589 275.408 258.807" stroke="#263238" stroke-width="0.686" stroke-linecap="round" stroke-linejoin="round"/>
<path d="M275.038 269.92H298.643V277.37C298.643 278.007 298.39 278.618 297.94 279.068C297.49 279.518 296.879 279.771 296.242 279.771H277.439C276.802 279.771 276.191 279.518 275.741 279.068C275.291 278.618 275.038 278.007 275.038 277.37V269.92Z" fill="white" stroke="#263238" stroke-width="0.686" stroke-linecap="round" stroke-linejoin="round"/>
<path d="M298.41 273.028H275.038C274.548 273.026 274.079 272.83 273.733 272.483C273.387 272.136 273.193 271.666 273.193 271.176C273.194 270.687 273.389 270.219 273.735 269.873C274.081 269.527 274.549 269.332 275.038 269.33H298.41C298.899 269.33 299.369 269.525 299.715 269.871C300.061 270.217 300.255 270.686 300.255 271.176C300.256 271.419 300.209 271.659 300.117 271.884C300.024 272.109 299.889 272.313 299.717 272.485C299.546 272.657 299.342 272.794 299.118 272.887C298.893 272.98 298.653 273.028 298.41 273.028Z" fill="white" stroke="#263238" stroke-width="0.686" stroke-linecap="round" stroke-linejoin="round"/>
<path d="M248.078 177.496C248.078 177.496 240.909 200.573 239.359 201.348C237.809 202.123 207.172 194.556 207.172 194.556C207.172 194.556 204.654 196.69 203.104 197.3C202.052 197.732 201.072 198.319 200.195 199.043C200.195 199.043 196.498 203.399 196.69 202.233C196.882 201.067 198.446 199.434 198.446 199.434C198.446 199.434 195.133 202.994 194.749 202.61C194.364 202.226 197.287 199.043 197.287 199.043C197.287 199.043 192.917 203.111 192.636 202.343C192.43 201.787 195.27 198.563 195.27 198.563C195.27 198.563 190.502 203.31 190.502 202.343C190.502 201.375 192.636 199.043 193.987 198.076C195.338 197.108 202.329 192.841 203.879 192.841C205.43 192.841 232.959 193.617 232.959 193.617L240.326 168.022" fill="white"/>
<path d="M248.078 177.496C248.078 177.496 240.909 200.573 239.359 201.348C237.809 202.123 207.172 194.556 207.172 194.556C207.172 194.556 204.654 196.69 203.104 197.3C202.052 197.732 201.072 198.319 200.195 199.043C200.195 199.043 196.498 203.399 196.69 202.233C196.882 201.067 198.446 199.434 198.446 199.434C198.446 199.434 195.133 202.994 194.749 202.61C194.364 202.226 197.287 199.043 197.287 199.043C197.287 199.043 192.917 203.111 192.636 202.343C192.43 201.787 195.27 198.563 195.27 198.563C195.27 198.563 190.502 203.31 190.502 202.343C190.502 201.375 192.636 199.043 193.987 198.076C195.338 197.108 202.329 192.841 203.879 192.841C205.43 192.841 232.959 193.617 232.959 193.617L240.326 168.022" stroke="#263238" stroke-width="0.686" stroke-linecap="round" stroke-linejoin="round"/>
<path d="M203.783 195.764C203.531 196.61 202.957 197.324 202.185 197.753C200.813 198.645 198.803 198.048 197.808 198.748C196.813 199.448 195.62 200.12 195.222 200.038C194.824 199.955 195.723 198.446 196.32 198.048C196.916 197.65 200.195 194.865 200.195 194.865" fill="white"/>
<path d="M203.783 195.764C203.531 196.61 202.957 197.324 202.185 197.753C200.813 198.645 198.803 198.048 197.808 198.748C196.813 199.448 195.62 200.12 195.222 200.038C194.824 199.955 195.723 198.446 196.32 198.048C196.916 197.65 200.195 194.865 200.195 194.865" stroke="#263238" stroke-width="0.686" stroke-linecap="round" stroke-linejoin="round"/>
<path d="M207.007 269.221C207.007 269.221 203.728 270.325 202.116 270.991C200.504 271.656 195.434 271.354 194.893 272.157C194.351 272.959 196.546 273.467 199.626 274.963C202.706 276.458 205.313 275.484 205.937 275.717C206.561 275.95 208.173 277.027 210.506 275.875C212.838 274.722 211.391 270.236 211.391 270.236L207.007 269.221Z" fill="#263238" stroke="#263238" stroke-width="0.686" stroke-linecap="round" stroke-linejoin="round"/>
<path d="M242.755 210.794C242.755 210.794 217.524 213.792 215.809 215.171C214.094 216.55 206.891 269.365 206.891 269.365L211.274 270.373L224.199 229.721C224.199 229.721 239.359 225.783 247.276 226.428C255.192 227.073 257.614 225.296 259.226 220.775C260.838 216.255 258.745 212.859 256.324 212.214" fill="#263238"/>
<path d="M242.755 210.794C242.755 210.794 217.524 213.792 215.809 215.171C214.094 216.55 206.891 269.365 206.891 269.365L211.274 270.373L224.199 229.721C224.199 229.721 239.359 225.783 247.276 226.428C255.192 227.073 257.614 225.296 259.226 220.775C260.838 216.255 258.745 212.859 256.324 212.214" stroke="#263238" stroke-width="0.686" stroke-linecap="round" stroke-linejoin="round"/>
<path d="M241.04 207.124C241.04 207.124 240.697 219.472 240.697 222.044C240.697 224.617 243.804 227.224 249.237 227.224C254.671 227.224 261.928 226.702 264.254 224.377C266.58 222.051 264.775 206.253 264.775 206.253L241.04 207.124Z" fill="#263238" stroke="#263238" stroke-width="0.686" stroke-linecap="round" stroke-linejoin="round"/>
<path d="M236.176 165.58C236.176 165.58 234.406 172.872 235.291 177.928C236.176 182.984 239.27 192.732 239.05 195.167C238.831 197.602 239.736 206.212 241.04 207.097C242.343 207.981 263.794 207.097 263.794 207.097C263.794 207.097 265.784 206.411 265.345 203.118C264.906 199.825 262.47 186.105 260.481 175.053C258.492 164.002 245.677 156.936 245.677 156.936L236.176 165.58Z" fill="#3892D2" stroke="#263238" stroke-width="0.686" stroke-linecap="round" stroke-linejoin="round"/>
<path d="M228.438 127.356C228.438 127.356 225.125 127.356 223.574 130.011C222.024 132.666 225.125 134.429 225.125 134.429C225.125 134.429 223.355 140.17 223.355 141.289C223.493 142.358 223.791 143.401 224.24 144.382L222.95 149.452L225.159 150.337C225.159 150.337 226.037 155.64 227.587 156.079C229.138 156.518 232.451 154.974 232.451 154.974L236.649 162.266L245.705 156.964L242.83 149.891C242.83 149.891 247.474 140.17 246.59 134.202C245.705 128.234 234.852 125.367 228.438 127.356Z" fill="white" stroke="#263238" stroke-width="0.686" stroke-linecap="round" stroke-linejoin="round"/>
<path d="M246.562 134.202C245.677 128.241 234.852 125.366 228.445 127.342C228.445 127.342 225.131 127.342 223.581 129.997C222.031 132.652 225.131 134.415 225.131 134.415C225.131 134.415 232.424 132.425 232.424 134.188C232.424 135.951 230.873 137.063 231.319 138.613C231.765 140.164 234.406 140.157 234.406 140.157L234.187 143.47L236.176 144.801C236.176 144.801 236.176 141.481 237.5 141.707C238.824 141.933 239.716 142.393 239.716 144.801C239.716 147.209 237.726 147.449 237.726 147.449C237.726 147.449 240.594 151.647 242.803 149.877C242.803 149.891 247.447 140.17 246.562 134.202Z" fill="#263238" stroke="#263238" stroke-width="0.686" stroke-linecap="round" stroke-linejoin="round"/>
<path d="M245.897 153.87L233.967 164.475L234.852 168.9L248.332 157.629L245.897 153.87Z" fill="white" stroke="#263238" stroke-width="0.686" stroke-linecap="round" stroke-linejoin="round"/>
<path d="M198.59 198.048C200.984 196.381 203.507 194.908 206.136 193.644C209.45 192.32 237.287 191.641 237.287 191.641L238.467 186.619L247.241 190.585C245.917 195.009 244.655 198.734 244.072 199.063C242.563 199.914 211.878 196.319 211.878 196.319C211.878 196.319 209.642 197.424 208.119 198.082C207.074 198.495 205.963 198.714 204.84 198.727C204.84 198.727 201.368 203.255 201.506 202.082C201.643 200.909 203.118 199.201 203.118 199.201C203.118 199.201 199.983 202.926 199.578 202.555C199.173 202.185 201.931 198.871 201.931 198.871C201.931 198.871 197.774 203.152 197.451 202.397C197.218 201.849 199.9 198.494 199.9 198.494C199.9 198.494 195.373 203.474 195.325 202.507C195.277 201.54 197.28 199.084 198.59 198.048Z" fill="white" stroke="#263238" stroke-width="0.686" stroke-linecap="round" stroke-linejoin="round"/>
<path d="M243.914 166.465C243.914 166.465 241.04 167.569 240.82 170.005C240.601 172.44 237.281 191.641 237.281 191.641L247.228 198.727L253.854 173.558" fill="#3892D2"/>
<path d="M243.914 166.465C243.914 166.465 241.04 167.569 240.82 170.005C240.601 172.44 237.281 191.641 237.281 191.641L247.228 198.727L253.854 173.558" stroke="#263238" stroke-width="0.686" stroke-linecap="round" stroke-linejoin="round"/>
<path d="M236.176 191.655C236.176 191.655 244.792 200.051 245.897 200.051C247.001 200.051 246.583 199.832 247.227 198.727C247.872 197.623 248.551 193.644 248.551 193.644L237.946 188.156C237.055 189.144 236.444 190.352 236.176 191.655Z" fill="white" stroke="#263238" stroke-width="0.686" stroke-linecap="round" stroke-linejoin="round"/>
<path d="M253.134 211.171C244.293 209.495 235.287 208.85 226.298 209.251C212.982 209.847 209.148 212.53 209.642 214.862C210.135 217.194 221.304 262.491 221.304 262.491L225.962 261.977L223.375 220.817C223.375 220.817 239.428 226.188 249.258 227.224C259.088 228.26 261.606 227.32 264.275 224.377" fill="#263238"/>
<path d="M253.134 211.171C244.293 209.495 235.287 208.85 226.298 209.251C212.982 209.847 209.148 212.53 209.642 214.862C210.135 217.194 221.304 262.491 221.304 262.491L225.962 261.977L223.375 220.817C223.375 220.817 239.428 226.188 249.258 227.224C259.088 228.26 261.606 227.32 264.275 224.377" stroke="#263238" stroke-width="0.686" stroke-linecap="round" stroke-linejoin="round"/>
<path d="M221.283 262.491C221.283 262.491 219.225 264.33 218.175 265.461C217.126 266.593 210.472 270.442 209.909 271.121C209.347 271.8 211.151 272.712 212.653 272.712C214.155 272.712 223.3 270.332 225.564 269.968C227.827 269.605 228.061 268.837 228.17 267.814C228.28 266.792 225.968 261.956 225.968 261.956L221.283 262.491Z" fill="#263238" stroke="#263238" stroke-width="0.686" stroke-linecap="round" stroke-linejoin="round"/>
<path d="M246.809 248.449H254.06V228.26H246.809V248.449Z" fill="#263238"/>
<path d="M248.627 263.465H252.249V243.276H248.627V263.465Z" fill="#263238"/>
<path d="M251.117 229.282C255.871 229.282 259.816 229.247 260.886 229.158C264.254 228.877 265.756 227.745 265.921 227.615C268.164 225.625 268.247 221.256 268.452 210.712C268.507 207.858 268.569 204.62 268.686 200.854C269.193 184.164 275.285 167.473 275.347 167.309C275.406 167.163 275.435 167.008 275.433 166.851C275.431 166.695 275.397 166.54 275.334 166.397C275.27 166.253 275.179 166.124 275.065 166.017C274.95 165.91 274.816 165.827 274.669 165.773C274.521 165.719 274.365 165.695 274.208 165.703C274.052 165.711 273.899 165.75 273.758 165.819C273.617 165.887 273.491 165.983 273.388 166.101C273.285 166.219 273.207 166.357 273.158 166.506C273.097 166.671 266.875 183.704 266.36 200.806C266.243 204.586 266.182 207.824 266.127 210.684C265.948 219.602 265.852 224.493 264.453 225.817C263.303 226.465 262.013 226.823 260.694 226.86C257.675 227.107 229.501 226.86 229.22 226.86C228.911 226.86 228.614 226.983 228.395 227.202C228.177 227.42 228.054 227.717 228.054 228.026C228.054 228.336 228.177 228.632 228.395 228.851C228.614 229.07 228.911 229.193 229.22 229.193C229.961 229.172 242.028 229.282 251.117 229.282Z" fill="#263238"/>
<path d="M251.913 261.908C251.913 261.908 254.959 265.338 262.786 266.573C266.902 267.204 271.224 268 274.956 270.003C277.363 271.272 282.145 274.057 282.145 277.24C282.109 277.972 281.793 278.662 281.262 279.167C280.732 279.672 280.027 279.954 279.295 279.954C278.562 279.954 277.857 279.672 277.327 279.167C276.796 278.662 276.48 277.972 276.444 277.24C276.444 276.517 276.721 275.822 277.219 275.299C275.262 272.358 272.231 270.302 268.775 269.571C262.82 268.274 258.485 268.802 250.102 263.232L251.913 261.908Z" fill="#263238"/>
<path d="M249.32 261.908C249.32 261.908 246.274 265.338 238.447 266.573C234.331 267.204 230.009 268 226.27 270.003C223.869 271.272 219.088 274.057 219.088 277.24C219.084 277.707 219.196 278.168 219.412 278.582C219.628 278.996 219.942 279.35 220.327 279.614C220.712 279.878 221.156 280.044 221.62 280.097C222.084 280.149 222.554 280.087 222.988 279.916C223.422 279.745 223.808 279.47 224.111 279.115C224.415 278.76 224.626 278.336 224.727 277.88C224.829 277.424 224.816 276.95 224.692 276.5C224.567 276.05 224.334 275.638 224.013 275.299C225.97 272.358 229.002 270.302 232.458 269.571C238.412 268.274 242.748 268.802 251.131 263.232L249.32 261.908Z" fill="#263238"/>
<path d="M249.382 280.06H251.748C251.998 280.06 252.201 279.857 252.201 279.607V275.161C252.201 274.911 251.998 274.709 251.748 274.709H249.382C249.132 274.709 248.929 274.911 248.929 275.161V279.607C248.929 279.857 249.132 280.06 249.382 280.06Z" fill="#263238"/>
<path d="M249.793 280.06H251.344V262.395H249.793V280.06Z" fill="#263238"/>
<path d="M114.034 136.246C114.047 137.409 113.985 138.57 113.849 139.724C113.663 140.458 112.381 141.556 112.751 142.468C113.121 143.381 113.849 145.953 113.849 145.953L111.653 146.317C111.653 146.317 109.088 151.078 107.441 151.627C105.795 152.175 98.4685 148.176 98.4685 148.176L96.088 158.98L90.408 153.664C90.408 153.664 92.7884 147.072 92.9736 145.432C93.1588 143.792 93.3372 132.069 94.9904 128.591C96.6437 125.113 100.115 122.547 106.159 123.281C112.202 124.015 116.414 129.469 114.034 136.246Z" fill="white" stroke="#263238" stroke-width="0.686" stroke-linecap="round" stroke-linejoin="round"/>
<path d="M104.142 135.512L99.5661 156.936L84.5496 147.6C84.5496 147.6 92.4248 133.496 94.0712 129.078C95.7176 124.66 99.2025 121.202 105.239 121.936C111.276 122.67 114.768 127.795 115.68 130.539C116.593 133.283 114.946 136.953 114.946 136.953L104.142 135.512Z" fill="#263238" stroke="#263238" stroke-width="0.686" stroke-linecap="round" stroke-linejoin="round"/>
<path d="M97.803 210.911C97.803 210.911 130.683 209.621 133.008 212.729C135.334 215.836 138.963 259.322 142.119 266.621C143.703 270.284 155.276 266.573 154.24 268.638C153.204 270.702 149.322 273.302 146.989 273.817C144.657 274.331 143.106 275.628 140.26 276.41C137.413 277.192 136.377 274.078 136.637 272.294C136.741 270.65 136.658 269 136.39 267.375C136.39 267.375 134.929 258.739 133.53 254.691C124.859 229.577 126.54 222.072 126.54 222.072C126.54 222.072 110.762 227.766 97.803 227.251" fill="white"/>
<path d="M97.803 210.911C97.803 210.911 130.683 209.621 133.008 212.729C135.334 215.836 138.963 259.322 142.119 266.621C143.703 270.284 155.276 266.573 154.24 268.638C153.204 270.702 149.322 273.302 146.989 273.817C144.657 274.331 143.106 275.628 140.26 276.41C137.413 277.192 136.377 274.078 136.637 272.294C136.741 270.65 136.658 269 136.39 267.375C136.39 267.375 134.929 258.739 133.53 254.691C124.859 229.577 126.54 222.072 126.54 222.072C126.54 222.072 110.762 227.766 97.803 227.251" stroke="#263238" stroke-width="0.686" stroke-linecap="round" stroke-linejoin="round"/>
<path d="M154.24 268.638C154.844 267.43 151.133 268.199 147.634 268.308L148.286 270.455C148.286 270.455 144.657 271.615 141.68 272.397C140.012 272.754 138.298 272.84 136.603 272.651C136.528 274.482 137.605 277.13 140.26 276.41C143.106 275.628 144.657 274.352 146.989 273.817C149.322 273.282 153.204 270.709 154.24 268.638Z" fill="#263238" stroke="#263238" stroke-width="0.686" stroke-linecap="round" stroke-linejoin="round"/>
<path d="M83.7743 177.496C83.7743 177.496 90.9498 200.573 92.5002 201.348C94.0506 202.123 124.68 194.556 124.68 194.556C124.68 194.556 127.205 196.69 128.755 197.3C129.807 197.732 130.787 198.319 131.664 199.043C131.664 199.043 135.355 203.399 135.163 202.233C134.97 201.067 133.406 199.434 133.406 199.434C133.406 199.434 136.72 202.994 137.111 202.61C137.502 202.226 134.573 199.043 134.573 199.043C134.573 199.043 138.942 203.111 139.224 202.343C139.429 201.787 136.583 198.563 136.583 198.563C136.583 198.563 141.385 203.31 141.385 202.343C141.385 201.375 139.258 199.015 137.886 198.048C136.514 197.081 129.551 192.814 128.001 192.814C126.45 192.814 98.9143 193.589 98.9143 193.589L91.5535 167.995" fill="white"/>
<path d="M83.7743 177.496C83.7743 177.496 90.9498 200.573 92.5002 201.348C94.0506 202.123 124.68 194.556 124.68 194.556C124.68 194.556 127.205 196.69 128.755 197.3C129.807 197.732 130.787 198.319 131.664 199.043C131.664 199.043 135.355 203.399 135.163 202.233C134.97 201.067 133.406 199.434 133.406 199.434C133.406 199.434 136.72 202.994 137.111 202.61C137.502 202.226 134.573 199.043 134.573 199.043C134.573 199.043 138.942 203.111 139.224 202.343C139.429 201.787 136.583 198.563 136.583 198.563C136.583 198.563 141.385 203.31 141.385 202.343C141.385 201.375 139.258 199.015 137.886 198.048C136.514 197.081 129.551 192.814 128.001 192.814C126.45 192.814 98.9143 193.589 98.9143 193.589L91.5535 167.995" stroke="#263238" stroke-width="0.686" stroke-linecap="round" stroke-linejoin="round"/>
<path d="M128.076 195.764C128.327 196.609 128.898 197.323 129.668 197.753C131.04 198.645 133.05 198.048 134.044 198.748C135.039 199.448 136.233 200.12 136.631 200.038C137.028 199.955 136.137 198.446 135.54 198.048C134.943 197.65 131.657 194.865 131.657 194.865" fill="white"/>
<path d="M128.076 195.764C128.327 196.609 128.898 197.323 129.668 197.753C131.04 198.645 133.05 198.048 134.044 198.748C135.039 199.448 136.233 200.12 136.631 200.038C137.028 199.955 136.137 198.446 135.54 198.048C134.943 197.65 131.657 194.865 131.657 194.865" stroke="#263238" stroke-width="0.686" stroke-linecap="round" stroke-linejoin="round"/>
<path d="M90.9498 151.325C90.9498 151.325 97.3434 155.976 98.4958 160.051C99.6483 164.125 104.121 177.695 102.955 180.212C101.789 182.73 96.3624 189.521 95.9782 190.097C95.5941 190.674 100.629 215.109 101.013 218.223C101.398 221.338 99.6415 225.207 95.203 226.757C90.7646 228.308 81.435 229.275 77.367 224.233C73.2991 219.191 73.4637 212.996 78.5332 200.586C80.0081 196.971 81.0509 193.603 81.0509 193.603C81.0509 193.603 78.9174 175.767 80.0836 168.399C81.2498 161.032 90.9498 151.325 90.9498 151.325Z" fill="#3892D2" stroke="#263238" stroke-width="0.686" stroke-linecap="round" stroke-linejoin="round"/>
<path d="M86.1548 209.621C86.1548 209.621 128.632 208.249 132.515 210.348C136.397 212.447 119.81 269.934 119.81 269.934C119.81 269.934 121.401 272.328 122.863 274.242C124.032 275.771 125.382 277.153 126.883 278.358C127.335 278.633 128.618 278.818 128.159 279.456C127.699 280.094 125.332 279.545 123.048 279.367C120.763 279.188 118.575 278.18 118.205 277.535C117.834 276.89 115.742 274.345 114.919 273.975C114.096 273.604 112.73 272.513 113.368 271.327C114.006 270.14 116.016 268.315 116.112 267.677C116.208 267.039 118.856 250.815 119.145 247.262C120.654 226.462 121.889 221.331 121.889 221.331C121.889 221.331 100.623 230.331 86.9025 227.773" fill="#3892D2"/>
<path d="M86.1548 209.621C86.1548 209.621 128.632 208.249 132.515 210.348C136.397 212.447 119.81 269.934 119.81 269.934C119.81 269.934 121.401 272.328 122.863 274.242C124.032 275.771 125.382 277.153 126.883 278.358C127.335 278.633 128.618 278.818 128.159 279.456C127.699 280.094 125.332 279.545 123.048 279.367C120.763 279.188 118.575 278.18 118.205 277.535C117.834 276.89 115.742 274.345 114.919 273.975C114.096 273.604 112.73 272.513 113.368 271.327C114.006 270.14 116.016 268.315 116.112 267.677C116.208 267.039 118.856 250.815 119.145 247.262C120.654 226.462 121.889 221.331 121.889 221.331C121.889 221.331 100.623 230.331 86.9025 227.773" stroke="#263238" stroke-width="0.686" stroke-linecap="round" stroke-linejoin="round"/>
<path d="M132.515 210.348C130.758 209.408 121.086 209.175 111.029 209.196L111.214 225.022C114.822 223.974 118.374 222.739 121.854 221.324C121.854 221.324 120.647 226.455 119.11 247.255C118.849 250.808 116.167 267.032 116.078 267.67C115.989 268.308 113.979 270.133 113.334 271.32C112.689 272.507 114.061 273.604 114.884 273.968C115.708 274.331 117.807 276.89 118.17 277.528C118.534 278.166 120.729 279.175 123.013 279.36C125.298 279.545 127.671 280.087 128.124 279.449C128.577 278.811 127.301 278.626 126.848 278.351C125.347 277.146 123.997 275.764 122.828 274.235C121.367 272.321 119.776 269.927 119.776 269.927C119.776 269.927 136.397 212.42 132.515 210.348Z" fill="white" stroke="#263238" stroke-width="0.686" stroke-linecap="round" stroke-linejoin="round"/>
<path d="M126.91 278.351C126.238 277.842 125.609 277.277 125.03 276.664H120.324L115.207 268.987C114.525 269.708 113.909 270.488 113.368 271.32C112.73 272.507 114.096 273.604 114.919 273.968C115.742 274.331 117.841 276.89 118.205 277.528C118.568 278.166 120.763 279.175 123.048 279.36C125.332 279.545 127.706 280.087 128.159 279.449C128.611 278.811 127.335 278.626 126.91 278.351Z" fill="#263238" stroke="#263238" stroke-width="0.686" stroke-linecap="round" stroke-linejoin="round"/>
<path d="M84.6866 175.012C84.6866 175.012 94.4965 197.095 96.1291 197.65C97.7618 198.206 127.301 187.161 127.301 187.161C127.301 187.161 130.045 188.986 131.664 189.384C132.758 189.684 133.801 190.147 134.758 190.756C134.758 190.756 138.929 194.652 138.606 193.5C138.284 192.347 136.548 190.927 136.548 190.927C136.548 190.927 140.253 194.076 140.596 193.671C140.939 193.267 137.66 190.427 137.66 190.427C137.66 190.427 142.462 193.96 142.661 193.171C142.805 192.594 139.601 189.741 139.601 189.741C139.601 189.741 144.897 193.898 144.78 192.937C144.664 191.977 142.276 189.912 140.815 189.11C139.354 188.307 131.897 184.877 130.388 185.062C128.879 185.247 101.576 189.219 101.576 189.219L91.286 164.661" fill="#3892D2"/>
<path d="M84.6866 175.012C84.6866 175.012 94.4965 197.095 96.1291 197.65C97.7618 198.206 127.301 187.161 127.301 187.161C127.301 187.161 130.045 188.986 131.664 189.384C132.758 189.684 133.801 190.147 134.758 190.756C134.758 190.756 138.929 194.652 138.606 193.5C138.284 192.347 136.548 190.927 136.548 190.927C136.548 190.927 140.253 194.076 140.596 193.671C140.939 193.267 137.66 190.427 137.66 190.427C137.66 190.427 142.462 193.96 142.661 193.171C142.805 192.594 139.601 189.741 139.601 189.741C139.601 189.741 144.897 193.898 144.78 192.937C144.664 191.977 142.276 189.912 140.815 189.11C139.354 188.307 131.897 184.877 130.388 185.062C128.879 185.247 101.576 189.219 101.576 189.219L91.286 164.661" stroke="#263238" stroke-width="0.686" stroke-linecap="round" stroke-linejoin="round"/>
<path d="M140.801 189.123C139.34 188.314 131.883 184.891 130.374 185.076C128.865 185.261 101.562 189.233 101.562 189.233L99.566 184.479L91.5741 189.844C93.6321 193.994 95.4774 197.451 96.1086 197.678C97.7412 198.268 127.28 187.189 127.28 187.189C127.28 187.189 130.024 189.014 131.643 189.411C132.737 189.712 133.78 190.174 134.737 190.783C134.737 190.783 138.908 194.68 138.586 193.527C138.263 192.375 136.528 190.955 136.528 190.955C136.528 190.955 140.232 194.104 140.575 193.699C140.918 193.294 137.639 190.454 137.639 190.454C137.639 190.454 142.441 193.987 142.64 193.198C142.784 192.622 139.58 189.768 139.58 189.768C139.58 189.768 144.876 193.925 144.76 192.965C144.643 192.005 142.263 189.926 140.801 189.123Z" fill="white" stroke="#263238" stroke-width="0.686" stroke-linecap="round" stroke-linejoin="round"/>
<path d="M94.9629 228.26H87.7119V248.449H94.9629V228.26Z" fill="#263238"/>
<path d="M93.145 243.269H89.5229V263.458H93.145V243.269Z" fill="#263238"/>
<path d="M90.6549 229.282C85.8941 229.282 81.9564 229.247 80.8794 229.158C77.518 228.877 76.0088 227.745 75.851 227.615C73.6078 225.625 73.5255 221.256 73.3197 210.712C73.258 207.858 73.1962 204.62 73.0865 200.854C72.5788 184.164 66.4871 167.473 66.4254 167.309C66.3717 167.165 66.3469 167.013 66.3523 166.86C66.3577 166.707 66.3934 166.557 66.4571 166.418C66.5209 166.279 66.6115 166.154 66.7238 166.05C66.8361 165.946 66.9678 165.866 67.1114 165.813C67.4018 165.708 67.7217 165.721 68.0026 165.849C68.2835 165.978 68.5029 166.211 68.6137 166.499C68.6755 166.664 74.8975 183.697 75.412 200.799C75.5286 204.579 75.5904 207.817 75.6452 210.677C75.8167 219.595 75.9128 224.487 77.3122 225.811C78.4657 226.455 79.7575 226.813 81.0784 226.853C84.0968 227.1 112.264 226.853 112.552 226.853C112.861 226.853 113.158 226.976 113.377 227.195C113.595 227.414 113.718 227.71 113.718 228.02C113.718 228.329 113.595 228.625 113.377 228.844C113.158 229.063 112.861 229.186 112.552 229.186C111.818 229.172 99.7444 229.282 90.6549 229.282Z" fill="#263238"/>
<path d="M89.866 261.908C89.866 261.908 86.8202 265.338 78.9929 266.573C74.8769 267.204 70.5551 268 66.8164 270.003C64.4154 271.272 59.634 274.057 59.634 277.24C59.6305 277.707 59.7417 278.168 59.9577 278.581C60.1738 278.995 60.4881 279.35 60.8731 279.614C61.2581 279.878 61.702 280.044 62.166 280.097C62.6299 280.149 63.0997 280.087 63.5341 279.916C63.9685 279.745 64.3543 279.47 64.6576 279.115C64.9608 278.76 65.1724 278.336 65.2736 277.88C65.3748 277.424 65.3626 276.95 65.2381 276.5C65.1136 276.05 64.8806 275.638 64.5595 275.299C66.5166 272.358 69.5483 270.302 73.0041 269.571C78.9586 268.274 83.2941 268.802 91.677 263.232L89.866 261.908Z" fill="#263238"/>
<path d="M92.4522 261.908C92.4522 261.908 95.4912 265.338 103.325 266.573C107.441 267.204 111.763 268 115.495 270.003C117.903 271.272 122.684 274.057 122.684 277.24C122.648 277.972 122.332 278.662 121.802 279.167C121.271 279.672 120.567 279.954 119.834 279.954C119.101 279.954 118.397 279.672 117.866 279.167C117.335 278.662 117.019 277.972 116.984 277.24C116.983 276.517 117.261 275.822 117.759 275.299C115.802 272.358 112.77 270.302 109.314 269.571C103.36 268.274 99.0241 268.802 90.6343 263.232L92.4522 261.908Z" fill="#263238"/>
<path d="M92.3837 274.716H90.017C89.7669 274.716 89.5642 274.918 89.5642 275.168V279.614C89.5642 279.864 89.7669 280.066 90.017 280.066H92.3837C92.6337 280.066 92.8364 279.864 92.8364 279.614V275.168C92.8364 274.918 92.6337 274.716 92.3837 274.716Z" fill="#263238"/>
<path d="M91.9788 262.395H90.4285V280.059H91.9788V262.395Z" fill="#263238"/>
<path d="M149.061 202.905H128.09V203.941H149.061V202.905Z" fill="white" stroke="#263238" stroke-width="0.686" stroke-linecap="round" stroke-linejoin="round"/>
<path d="M158.569 157.073L161.107 161.128L157.615 191.305L154.892 190.989L158.569 157.073Z" fill="#263238" stroke="#263238" stroke-width="0.686" stroke-linecap="round" stroke-linejoin="round"/>
<path d="M159.305 152.899L157.328 152.67L152.828 191.506L154.804 191.735L159.305 152.899Z" fill="white" stroke="#263238" stroke-width="0.686" stroke-linecap="round" stroke-linejoin="round"/>
<path d="M158.617 182.648L157.485 202.569H151.009V204.112H157.485H158.98V202.569L160.099 182.819L158.617 182.648Z" fill="white" stroke="#263238" stroke-width="0.686" stroke-linecap="round" stroke-linejoin="round"/>
<path d="M195.798 203.941H216.769V202.905H195.798V203.941Z" fill="white" stroke="#263238" stroke-width="0.686" stroke-linecap="round" stroke-linejoin="round"/>
<path d="M186.283 157.073L183.745 161.128L187.244 191.305L189.967 190.989L186.283 157.073Z" fill="#263238" stroke="#263238" stroke-width="0.686" stroke-linecap="round" stroke-linejoin="round"/>
<path d="M190.059 191.733L192.035 191.504L187.535 152.669L185.558 152.898L190.059 191.733Z" fill="white" stroke="#263238" stroke-width="0.686" stroke-linecap="round" stroke-linejoin="round"/>
<path d="M186.242 182.648L187.374 202.569H193.843V204.112H187.374H185.879V202.569L184.76 182.819L186.242 182.648Z" fill="white" stroke="#263238" stroke-width="0.686" stroke-linecap="round" stroke-linejoin="round"/>
<path d="M130.738 205.155L171.335 270.853L219.149 205.155" stroke="#263238" stroke-width="2.058" stroke-linecap="round" stroke-linejoin="round"/>
<path d="M224.905 203.927H124.982V205.999H224.905V203.927Z" fill="white" stroke="#263238" stroke-width="0.686" stroke-linecap="round" stroke-linejoin="round"/>
<path d="M176.549 167.885H166.094V276.924H176.549V167.885Z" fill="#263238" stroke="#263238" stroke-width="0.686" stroke-linecap="round" stroke-linejoin="round"/>
<path d="M144.238 218.491H141.515V236.457H144.238V218.491Z" fill="white" stroke="#263238" stroke-width="0.686" stroke-linecap="round" stroke-linejoin="round"/>
<path d="M144.238 238.872H141.515V256.838H144.238V238.872Z" fill="white" stroke="#263238" stroke-width="0.686" stroke-linecap="round" stroke-linejoin="round"/>
<path d="M144.238 259.26H141.515V277.226H144.238V259.26Z" fill="white" stroke="#263238" stroke-width="0.686" stroke-linecap="round" stroke-linejoin="round"/>
<path d="M200.058 215.829H143.106V279.771H200.058V215.829Z" fill="#263238" stroke="#263238" stroke-width="0.686" stroke-linecap="round" stroke-linejoin="round"/>
<path d="M33.415 279.771H321.048" stroke="#263238" stroke-width="0.686" stroke-linecap="round" stroke-linejoin="round"/>
</svg>
