<svg width="343" height="343" viewBox="0 0 343 343" fill="none" xmlns="http://www.w3.org/2000/svg">
<path d="M197.842 268.912C197.842 268.912 251.254 271.409 285.04 211.048C318.825 150.687 279.072 95.1619 217.661 83.1638C156.25 71.1657 125.655 26.116 70.9187 60.6013C16.1827 95.0865 46.6 278.742 197.842 268.912Z" fill="#3892D2"/>
<path opacity="0.4" d="M197.842 268.912C197.842 268.912 251.254 271.409 285.04 211.048C318.825 150.687 279.072 95.1619 217.661 83.1638C156.25 71.1657 125.655 26.116 70.9187 60.6013C16.1827 95.0865 46.6 278.742 197.842 268.912Z" fill="white"/>
<path d="M171.507 295.817C242.582 295.817 300.2 292.245 300.2 287.839C300.2 283.433 242.582 279.861 171.507 279.861C100.431 279.861 42.8132 283.433 42.8132 287.839C42.8132 292.245 100.431 295.817 171.507 295.817Z" fill="#3892D2"/>
<path opacity="0.7" d="M171.507 295.817C242.582 295.817 300.2 292.245 300.2 287.839C300.2 283.433 242.582 279.861 171.507 279.861C100.431 279.861 42.8132 283.433 42.8132 287.839C42.8132 292.245 100.431 295.817 171.507 295.817Z" fill="white"/>
<path d="M199.681 77.6827L199.31 80.8246L201.012 81.4282C201.036 82.5052 201.186 83.5757 201.458 84.6181L199.983 85.6883L201.224 88.6038L203.015 88.2677C203.573 89.1876 204.236 90.0394 204.991 90.8059L204.243 92.4797L206.781 94.3731L208.153 93.2069C209.096 93.7265 210.098 94.1319 211.137 94.4142L211.329 96.2321L214.464 96.6094L215.075 94.9013C216.152 94.8766 217.222 94.727 218.265 94.4554L219.342 95.9234L222.264 94.668L221.942 92.8844C222.859 92.326 223.708 91.6631 224.473 90.9088L226.147 91.6565L228.04 89.1183L226.867 87.7463C227.388 86.8061 227.793 85.8064 228.074 84.7691L229.892 84.577L230.27 81.4351L228.561 80.8246C228.54 79.7496 228.39 78.681 228.116 77.6415L229.597 76.5645L228.349 73.649L226.565 73.9783C226.004 73.0607 225.339 72.2113 224.583 71.4469L225.324 69.78L222.765 67.914L221.393 69.0871C220.454 68.5733 219.46 68.1682 218.429 67.8797L218.237 66.0618L215.095 65.6914L214.485 67.3927C213.41 67.4192 212.341 67.5712 211.302 67.8454L210.225 66.3705L207.309 67.6122L207.638 69.3958C206.725 69.9459 205.878 70.5996 205.114 71.344L203.447 70.6032L201.547 73.1414L202.72 74.5134C202.201 75.4568 201.795 76.4585 201.512 77.4975L199.681 77.6827ZM206.973 80.2003C207.157 78.6555 207.795 77.2 208.806 76.0179C209.817 74.8359 211.157 73.9804 212.654 73.5599C214.152 73.1393 215.741 73.1726 217.22 73.6554C218.698 74.1383 220.001 75.049 220.962 76.2723C221.923 77.4957 222.499 78.9766 222.618 80.5277C222.737 82.0788 222.393 83.6303 221.63 84.9858C220.867 86.3414 219.718 87.44 218.33 88.1426C216.943 88.8453 215.377 89.1204 213.833 88.9331C211.766 88.6824 209.883 87.6222 208.597 85.9851C207.311 84.348 206.727 82.2676 206.973 80.2003Z" stroke="#263238" stroke-width="1.07779" stroke-linejoin="round"/>
<path d="M117.724 154.995L117.388 157.842L118.932 158.391C118.953 159.366 119.089 160.335 119.337 161.279L117.965 162.253L119.09 164.894L120.709 164.585C121.215 165.417 121.816 166.189 122.499 166.883L121.813 168.399L124.166 170.128L125.408 169.065C126.261 169.538 127.169 169.906 128.11 170.162L128.282 171.809L131.129 172.152L131.678 170.601C132.653 170.581 133.622 170.445 134.566 170.197L135.54 171.534L138.174 170.402L137.886 168.756C138.718 168.249 139.489 167.649 140.184 166.966L141.7 167.652L143.415 165.36L142.352 164.105C142.823 163.253 143.192 162.348 143.449 161.409L145.096 161.231L145.432 158.384L143.888 157.835C143.867 156.86 143.731 155.89 143.484 154.947L144.856 153.973L143.724 151.332L142.112 151.627C141.6 150.798 140.995 150.032 140.308 149.342L140.994 147.826L138.641 146.118L137.392 147.181C136.542 146.712 135.639 146.346 134.703 146.091L134.531 144.444L131.685 144.101L131.136 145.652C130.161 145.673 129.191 145.808 128.248 146.056L127.274 144.746L124.632 145.871L124.927 147.49C124.095 147.996 123.324 148.597 122.629 149.28L121.113 148.594L119.398 150.893L120.462 152.141C119.991 152.996 119.623 153.903 119.364 154.844L117.724 154.995ZM124.331 157.272C124.498 155.874 125.076 154.557 125.992 153.487C126.907 152.418 128.12 151.643 129.475 151.263C130.831 150.882 132.269 150.912 133.608 151.348C134.947 151.785 136.126 152.608 136.997 153.715C137.868 154.822 138.391 156.162 138.5 157.565C138.609 158.969 138.3 160.374 137.611 161.602C136.922 162.83 135.884 163.826 134.629 164.465C133.374 165.103 131.958 165.355 130.56 165.189C128.684 164.964 126.975 164.004 125.807 162.519C124.639 161.035 124.108 159.148 124.331 157.272Z" fill="#263238"/>
<path d="M262.793 224.836V218.381L259.191 217.565C258.886 215.389 258.325 213.256 257.518 211.213L260.262 208.681L257.024 203.056L253.484 204.174C252.129 202.447 250.577 200.884 248.86 199.516L249.978 195.942L244.374 192.711L241.87 195.407C239.832 194.585 237.705 194.007 235.531 193.685L234.708 190.049H228.253L227.43 193.658C225.253 193.96 223.12 194.522 221.077 195.332L218.546 192.588L212.955 195.812L214.046 199.352C212.319 200.704 210.756 202.254 209.388 203.968L205.821 202.864L202.596 208.448L205.299 210.966C204.478 213.001 203.9 215.126 203.577 217.297L199.942 218.127V224.583L203.543 225.406C203.852 227.579 204.414 229.709 205.217 231.751L202.473 234.29L205.704 239.894L209.237 238.803C210.596 240.526 212.152 242.082 213.874 243.441L212.77 247.015L218.381 250.246L220.885 247.502C222.911 248.326 225.027 248.906 227.189 249.231L228.013 252.866H234.475L235.291 249.265C237.469 248.952 239.604 248.386 241.65 247.577L244.182 250.321L249.786 247.09L248.696 243.557C250.424 242.206 251.987 240.657 253.353 238.941L256.921 240.045L260.152 234.434L257.442 231.923C258.264 229.885 258.844 227.757 259.171 225.584L262.793 224.836ZM251.632 221.503C251.632 225.51 250.443 229.428 248.216 232.761C245.99 236.093 242.825 238.691 239.122 240.224C235.419 241.758 231.345 242.16 227.414 241.378C223.483 240.596 219.872 238.666 217.038 235.832C214.204 232.998 212.274 229.387 211.492 225.456C210.71 221.525 211.112 217.451 212.645 213.748C214.179 210.045 216.776 206.88 220.109 204.653C223.441 202.427 227.359 201.238 231.367 201.238C236.742 201.238 241.896 203.373 245.696 207.173C249.497 210.974 251.632 216.128 251.632 221.503Z" fill="white"/>
<path d="M150.632 64.5869H134.003V68.4217H150.632V64.5869Z" fill="#3892D2"/>
<path d="M144.931 70.1298H134.003V73.9646H144.931V70.1298Z" fill="#3892D2"/>
<path d="M140.294 75.6727H134.003V79.5074H140.294V75.6727Z" fill="#3892D2"/>
<path opacity="0.2" d="M150.632 64.5869H134.003V68.4217H150.632V64.5869Z" fill="black"/>
<path opacity="0.2" d="M144.931 70.1298H134.003V73.9646H144.931V70.1298Z" fill="black"/>
<path opacity="0.2" d="M140.294 75.6727H134.003V79.5074H140.294V75.6727Z" fill="black"/>
<path d="M110.768 107.064H105.129V118.616H110.768V107.064Z" fill="#3892D2"/>
<path d="M118.911 111.036H113.272V118.623H118.911V111.036Z" fill="#3892D2"/>
<path d="M127.061 114.253H121.422V118.623H127.061V114.253Z" fill="#3892D2"/>
<path opacity="0.2" d="M110.768 107.064H105.129V118.616H110.768V107.064Z" fill="black"/>
<path opacity="0.2" d="M118.911 111.036H113.272V118.623H118.911V111.036Z" fill="black"/>
<path opacity="0.2" d="M127.061 114.253H121.422V118.623H127.061V114.253Z" fill="black"/>
<path d="M172.145 127.363H103.867C102.93 127.365 102.002 127.182 101.135 126.824C100.269 126.467 99.4817 125.942 98.8184 125.28C98.1551 124.618 97.6289 123.832 97.2698 122.966C96.9108 122.1 96.726 121.172 96.726 120.235V63.8666C96.7296 61.9774 97.4817 60.1666 98.8176 58.8307C100.153 57.4948 101.964 56.7427 103.853 56.7391H172.131C173.068 56.7382 173.996 56.9218 174.862 57.2795C175.728 57.6372 176.515 58.162 177.178 58.8238C177.841 59.4857 178.367 60.2717 178.727 61.1369C179.086 62.0022 179.271 62.9297 179.272 63.8666V120.235C179.272 122.126 178.521 123.938 177.185 125.275C175.848 126.612 174.035 127.363 172.145 127.363ZM103.867 57.3908C102.144 57.3944 100.492 58.0807 99.2727 59.2996C98.0539 60.5184 97.3676 62.1704 97.3639 63.8941V120.263C97.3676 121.986 98.0539 123.638 99.2727 124.857C100.492 126.076 102.144 126.762 103.867 126.766H172.145C173.868 126.762 175.52 126.076 176.739 124.857C177.958 123.638 178.644 121.986 178.648 120.263V63.8666C178.644 62.143 177.958 60.4909 176.739 59.2721C175.52 58.0533 173.868 57.367 172.145 57.3633L103.867 57.3908Z" fill="#263238"/>
<path d="M171.267 107.38H146.921V108.004H171.267V107.38Z" fill="#263238"/>
<path d="M171.267 109.993H146.921V110.617H171.267V109.993Z" fill="#263238"/>
<path d="M171.267 112.6H146.921V113.224H171.267V112.6Z" fill="#263238"/>
<path d="M171.267 115.207H146.921V115.831H171.267V115.207Z" fill="#263238"/>
<path d="M171.267 117.814H146.921V118.438H171.267V117.814Z" fill="#263238"/>
<path d="M128.728 64.8476H104.382V65.4719H128.728V64.8476Z" fill="#263238"/>
<path d="M128.728 67.4544H104.382V68.0787H128.728V67.4544Z" fill="#263238"/>
<path d="M128.728 70.0612H104.382V70.6855H128.728V70.0612Z" fill="#263238"/>
<path d="M128.728 72.668H104.382V73.2922H128.728V72.668Z" fill="#263238"/>
<path d="M128.728 75.2748H104.382V75.899H128.728V75.2748Z" fill="#263238"/>
<path d="M166.458 85.9078L170.821 88.1991L170.32 75.8922L159.913 82.4778L164.276 84.7622L160.99 91.0117C160.411 91.011 159.849 91.2042 159.392 91.5605L153.595 88.8782V88.8439C153.62 88.1446 153.369 87.4635 152.895 86.9482C152.422 86.4329 151.765 86.1248 151.066 86.0905C150.367 86.0562 149.682 86.2986 149.161 86.7651C148.639 87.2316 148.322 87.8848 148.279 88.5832C148.272 88.67 148.272 88.7571 148.279 88.8439C148.282 89.2246 148.364 89.6005 148.519 89.9483L140.973 98.1803C140.731 98.1043 140.479 98.065 140.225 98.0637C140.094 98.0638 139.963 98.0776 139.834 98.1049L128.968 84.3094C129.216 83.6716 129.209 82.9624 128.947 82.3301C128.684 81.6978 128.188 81.1911 127.562 80.9158C126.935 80.6405 126.226 80.6179 125.583 80.8527C124.94 81.0875 124.413 81.5616 124.111 82.176C123.961 82.5079 123.884 82.8681 123.885 83.2324C123.893 83.505 123.939 83.7751 124.022 84.035L111.64 96.726C111.147 96.5483 110.613 96.5203 110.104 96.6454C109.596 96.7705 109.136 97.0431 108.782 97.4291C108.428 97.815 108.196 98.297 108.116 98.8143C108.035 99.3317 108.109 99.8614 108.329 100.337C108.548 100.812 108.904 101.212 109.35 101.486C109.796 101.76 110.313 101.896 110.837 101.876C111.36 101.857 111.866 101.683 112.291 101.377C112.715 101.071 113.04 100.646 113.224 100.156C113.328 99.863 113.382 99.5545 113.382 99.2437C113.383 99.0256 113.353 98.8085 113.293 98.5988L125.812 85.75C126.058 85.8316 126.315 85.8733 126.574 85.8735C126.737 85.8745 126.901 85.8584 127.061 85.8255L137.865 99.5455C137.526 100.171 137.449 100.906 137.652 101.589C137.855 102.271 138.32 102.845 138.946 103.185C139.572 103.524 140.307 103.601 140.989 103.398C141.672 103.196 142.246 102.73 142.585 102.104C142.777 101.756 142.887 101.369 142.907 100.972C142.914 100.883 142.914 100.794 142.907 100.705C142.903 100.427 142.857 100.152 142.77 99.8885L150.495 91.4781C150.642 91.5054 150.791 91.5192 150.941 91.5193C151.468 91.5191 151.984 91.3614 152.422 91.0665L158.322 93.8105C158.333 94.1629 158.414 94.5095 158.56 94.8302C158.706 95.151 158.914 95.4394 159.173 95.6787C159.432 95.918 159.736 96.1034 160.067 96.2239C160.398 96.3445 160.75 96.398 161.102 96.3811C161.454 96.3643 161.8 96.2775 162.118 96.1258C162.436 95.9741 162.721 95.7606 162.956 95.4977C163.19 95.2348 163.371 94.9277 163.485 94.5945C163.6 94.2612 163.648 93.9085 163.625 93.5567C163.599 93.064 163.435 92.5885 163.151 92.1847L166.458 85.9078Z" fill="#263238"/>
<path d="M172.303 134.641C171.228 134.643 170.199 135.071 169.44 135.831C168.681 136.591 168.255 137.621 168.255 138.695V173.826C168.255 174.899 168.682 175.928 169.441 176.687C170.2 177.447 171.229 177.873 172.303 177.873H214.835C215.909 177.873 216.939 177.447 217.699 176.688C218.459 175.929 218.887 174.9 218.889 173.826V138.675C218.887 137.601 218.459 136.571 217.699 135.813C216.939 135.054 215.909 134.628 214.835 134.628L172.303 134.641Z" stroke="#263238" stroke-width="0.686" stroke-linejoin="round"/>
<path d="M174.841 139.43H171.61V139.862H174.841V139.43Z" fill="#263238"/>
<path d="M174.841 142.956H171.61V143.388H174.841V142.956Z" fill="#263238"/>
<path d="M174.841 146.482H171.61V146.914H174.841V146.482Z" fill="#263238"/>
<path d="M174.841 150.014H171.61V150.447H174.841V150.014Z" fill="#263238"/>
<path d="M174.717 142.956H171.486V143.388H174.717V142.956Z" fill="#263238"/>
<path d="M174.841 153.541H171.61V153.973H174.841V153.541Z" fill="#263238"/>
<path d="M196.031 172.625C199.097 172.688 202.113 171.841 204.697 170.189C207.28 168.538 209.316 166.157 210.546 163.348C211.776 160.539 212.146 157.428 211.607 154.41C211.068 151.391 209.646 148.6 207.521 146.39C205.395 144.179 202.661 142.649 199.666 141.994C196.67 141.338 193.548 141.585 190.693 142.705C187.838 143.824 185.38 145.766 183.629 148.283C181.878 150.801 180.913 153.781 180.857 156.847C180.78 160.951 182.334 164.917 185.18 167.876C188.025 170.834 191.928 172.542 196.031 172.625ZM196.573 146.187C198.744 146.231 200.852 146.917 202.633 148.159C204.413 149.402 205.785 151.144 206.575 153.166C207.365 155.189 207.538 157.399 207.071 159.52C206.604 161.64 205.519 163.574 203.953 165.078C202.387 166.581 200.411 167.587 198.273 167.967C196.136 168.347 193.934 168.085 191.945 167.213C189.957 166.342 188.272 164.9 187.103 163.071C185.934 161.242 185.333 159.107 185.378 156.936C185.437 154.026 186.65 151.259 188.749 149.243C190.849 147.227 193.663 146.128 196.573 146.187Z" fill="#3892D2"/>
<path opacity="0.2" d="M196.031 172.625C199.097 172.688 202.113 171.841 204.697 170.189C207.28 168.538 209.316 166.157 210.546 163.348C211.776 160.539 212.146 157.428 211.607 154.41C211.068 151.391 209.646 148.6 207.521 146.39C205.395 144.179 202.661 142.649 199.666 141.994C196.67 141.338 193.548 141.585 190.693 142.705C187.838 143.824 185.38 145.766 183.629 148.283C181.878 150.801 180.913 153.781 180.857 156.847C180.78 160.951 182.334 164.917 185.18 167.876C188.025 170.834 191.928 172.542 196.031 172.625ZM196.573 146.187C198.744 146.231 200.852 146.917 202.633 148.159C204.413 149.402 205.785 151.144 206.575 153.166C207.365 155.189 207.538 157.399 207.071 159.52C206.604 161.64 205.519 163.574 203.953 165.078C202.387 166.581 200.411 167.587 198.273 167.967C196.136 168.347 193.934 168.085 191.945 167.213C189.957 166.342 188.272 164.9 187.103 163.071C185.934 161.242 185.333 159.107 185.378 156.936C185.437 154.026 186.65 151.259 188.749 149.243C190.849 147.227 193.663 146.128 196.573 146.187Z" fill="black"/>
<path d="M185.22 168.221C186.679 169.693 188.413 170.863 190.324 171.664C192.235 172.465 194.286 172.882 196.358 172.891C198.43 172.9 200.484 172.501 202.402 171.716C204.32 170.931 206.064 169.776 207.536 168.317C207.59 168.257 207.619 168.178 207.619 168.097C207.619 168.016 207.59 167.938 207.536 167.878L204.318 164.64C204.29 164.61 204.256 164.586 204.218 164.57C204.18 164.553 204.14 164.545 204.099 164.544C204.016 164.549 203.936 164.58 203.872 164.633C202.861 165.648 201.653 166.446 200.322 166.978C198.992 167.51 197.567 167.765 196.134 167.727H195.373C193.044 167.597 190.823 166.702 189.055 165.182C188.897 165.038 188.732 164.894 188.581 164.743C186.774 162.939 185.663 160.554 185.443 158.009C185.223 155.465 185.91 152.925 187.381 150.838C187.395 150.819 187.406 150.798 187.415 150.776C187.484 150.68 187.559 150.598 187.642 150.502C188.697 149.165 190.058 148.102 191.61 147.403C193.162 146.703 194.86 146.387 196.56 146.482C196.6 146.483 196.64 146.475 196.678 146.461C196.716 146.446 196.751 146.424 196.78 146.396C196.809 146.368 196.833 146.335 196.849 146.297C196.865 146.26 196.874 146.22 196.875 146.18L196.964 141.632C196.966 141.549 196.936 141.469 196.879 141.409C196.823 141.348 196.745 141.313 196.662 141.309C193.522 141.256 190.438 142.142 187.804 143.853C185.17 145.563 183.106 148.021 181.877 150.911C180.648 153.802 180.31 156.993 180.906 160.077C181.501 163.16 183.003 165.996 185.22 168.221Z" fill="#263238"/>
<path d="M196.669 141.316C200.945 141.321 205.044 143.023 208.065 146.049C211.086 149.075 212.782 153.177 212.78 157.452C212.778 161.728 211.078 165.828 208.053 168.851C205.029 171.874 200.928 173.572 196.652 173.572C192.376 173.572 188.275 171.874 185.251 168.851C182.227 165.828 180.527 161.728 180.524 157.452C180.522 153.177 182.218 149.075 185.239 146.049C188.26 143.023 192.359 141.321 196.635 141.316H196.669ZM196.038 172.303C199.042 172.364 201.996 171.534 204.528 169.917C207.06 168.299 209.055 165.967 210.261 163.216C211.467 160.464 211.83 157.417 211.304 154.459C210.778 151.501 209.387 148.766 207.306 146.599C205.226 144.432 202.549 142.93 199.615 142.285C196.681 141.639 193.621 141.878 190.823 142.971C188.025 144.065 185.614 145.963 183.895 148.427C182.176 150.891 181.226 153.809 181.166 156.813C181.085 160.839 182.606 164.734 185.395 167.639C188.183 170.545 192.012 172.225 196.038 172.31V172.303ZM196.58 145.864C198.808 145.909 200.972 146.614 202.799 147.889C204.625 149.165 206.033 150.953 206.844 153.028C207.654 155.103 207.831 157.372 207.352 159.548C206.873 161.724 205.759 163.709 204.152 165.252C202.545 166.795 200.516 167.826 198.323 168.216C196.129 168.606 193.869 168.337 191.829 167.442C189.788 166.548 188.059 165.068 186.859 163.191C185.66 161.314 185.044 159.123 185.09 156.895C185.151 153.909 186.396 151.069 188.551 149C190.705 146.932 193.594 145.804 196.58 145.864ZM196.134 167.754C198.238 167.797 200.308 167.216 202.081 166.082C203.854 164.949 205.252 163.315 206.097 161.388C206.941 159.46 207.196 157.326 206.827 155.254C206.459 153.182 205.484 151.266 204.026 149.748C202.569 148.23 200.694 147.178 198.639 146.726C196.583 146.273 194.44 146.441 192.48 147.206C190.52 147.972 188.831 149.302 187.626 151.028C186.422 152.754 185.756 154.798 185.714 156.902C185.659 159.722 186.725 162.448 188.679 164.482C190.633 166.515 193.315 167.69 196.134 167.748V167.754Z" fill="#263238"/>
<path d="M116.394 190.797V232.41" stroke="#263238" stroke-width="0.60311" stroke-linecap="round" stroke-linejoin="round"/>
<path d="M123.082 206.5H119.549V230.325H123.082V206.5Z" fill="#263238"/>
<path d="M128.131 216.22H124.598V230.318H128.131V216.22Z" fill="#3892D2"/>
<path d="M134.065 198.796H130.532V230.325H134.065V198.796Z" fill="white" stroke="#263238" stroke-width="0.60311" stroke-linejoin="round"/>
<path d="M143.916 194.248H140.383V230.318H143.916V194.248Z" fill="#263238"/>
<path d="M148.972 221.4H145.439V230.325H148.972V221.4Z" fill="#3892D2"/>
<path d="M154.906 209.024H151.373V230.325H154.906V209.024Z" fill="white" stroke="#263238" stroke-width="0.60311" stroke-linejoin="round"/>
<path d="M169.298 212.283H165.765V230.318H169.298V212.283Z" fill="#263238"/>
<path d="M174.354 198.288H170.821V230.318H174.354V198.288Z" fill="#3892D2"/>
<path d="M180.288 205.361H176.755V230.318H180.288V205.361Z" fill="white" stroke="#263238" stroke-width="0.60311" stroke-linejoin="round"/>
<path d="M112.6 224.809H114.576" stroke="#263238" stroke-width="0.60311" stroke-linecap="round" stroke-linejoin="round"/>
<path d="M112.6 219.671H114.576" stroke="#263238" stroke-width="0.60311" stroke-linecap="round" stroke-linejoin="round"/>
<path d="M112.6 214.54H114.576" stroke="#263238" stroke-width="0.60311" stroke-linecap="round" stroke-linejoin="round"/>
<path d="M112.6 209.401H114.576" stroke="#263238" stroke-width="0.60311" stroke-linecap="round" stroke-linejoin="round"/>
<path d="M112.6 204.263H114.576" stroke="#263238" stroke-width="0.60311" stroke-linecap="round" stroke-linejoin="round"/>
<path d="M112.6 199.125H114.576" stroke="#263238" stroke-width="0.60311" stroke-linecap="round" stroke-linejoin="round"/>
<path d="M112.6 193.987H114.576" stroke="#263238" stroke-width="0.60311" stroke-linecap="round" stroke-linejoin="round"/>
<path d="M114.054 230.325H182.764" stroke="#263238" stroke-width="0.60311" stroke-linecap="round" stroke-linejoin="round"/>
<path opacity="0.3" d="M128.131 216.22H124.598V230.318H128.131V216.22Z" fill="black"/>
<path opacity="0.3" d="M148.972 221.4H145.439V230.325H148.972V221.4Z" fill="black"/>
<path opacity="0.3" d="M174.354 198.288H170.821V230.318H174.354V198.288Z" fill="black"/>
<path d="M109.794 185.021C108.61 185.023 107.476 185.494 106.638 186.331C105.801 187.168 105.33 188.303 105.328 189.487V230.311C105.33 231.495 105.801 232.631 106.638 233.469C107.475 234.307 108.61 234.78 109.794 234.784H185.563C186.748 234.78 187.884 234.307 188.722 233.469C189.56 232.631 190.032 231.496 190.036 230.311V189.473C190.034 188.288 189.562 187.151 188.724 186.313C187.885 185.474 186.749 185.002 185.563 185L109.794 185.021Z" stroke="#263238" stroke-width="0.686" stroke-linejoin="round"/>
<path d="M49.8379 276.28C49.8379 276.28 51.4226 286.858 47.5878 287.942C43.7531 289.026 41.0914 287.599 40.6112 286.014C40.131 284.429 43.5267 273.11 43.5267 273.11L49.8379 276.28Z" fill="white"/>
<path d="M116.538 278.619L133.207 282.57C133.207 282.57 134.47 283.256 134.333 284.388C134.195 285.52 126.588 288.422 124.454 288.785C122.321 289.149 110.007 290.754 108.258 289.252C106.508 287.75 110.206 275.772 110.206 275.772L116.538 278.619Z" fill="white"/>
<path d="M86.3537 85.6951C86.3537 85.6951 88.6999 89.2349 88.7342 91.0254C88.7685 92.8158 88.5489 94.8601 89.6465 95.9165C90.7441 96.973 91.5879 98.1255 91.1352 98.6605C90.6824 99.1956 89.8112 100.238 89.8112 100.238C89.8112 100.238 90.9431 106.268 89.475 107.359C88.007 108.45 83.596 107.359 83.596 107.359V111.255C83.596 111.255 77.326 109.197 72.9973 109.582L72.229 101.233C72.229 101.233 81.6341 83.1501 86.3537 85.6951Z" fill="white"/>
<path d="M124.921 110.364C124.921 110.364 124.358 106.083 126.444 103.504C126.444 103.504 123.946 103.078 124.248 102.173C124.55 101.267 128.364 102.454 128.364 102.454L127.335 100.396C127.335 100.396 123.734 99.2025 124.18 98.0843C124.626 96.9662 129.908 99.717 129.908 99.717C129.908 99.717 126.773 97.0965 127.212 96.0058C127.651 94.915 130.841 94.9356 132.542 100.588L133.406 99.5112C133.406 99.5112 133.715 93.0765 134.6 92.7267C134.6 92.7267 135.972 93.4813 135.972 97.1788C135.972 97.1788 137.344 98.8321 136.473 100.232C135.602 101.631 133.55 104.78 131.808 105.96C130.066 107.14 130.072 111.743 130.072 111.743L124.921 110.364Z" fill="white"/>
<path d="M69.7113 75.1788L70.5002 74.1224C70.5002 74.1224 79.329 70.1847 79.1095 68.9568C78.8899 67.7288 73.889 69.4233 72.9355 68.7716C72.9355 68.7716 73.8478 57.1507 72.9355 56.7734C72.0231 56.3961 71.0078 62.2271 71.0078 62.2271C71.0078 62.2271 69.725 56.2452 68.7371 56.4167C67.7493 56.5882 68.1609 62.5907 68.1609 62.5907C68.1609 62.5907 66.2744 58.7422 65.5404 59.099C64.8064 59.4557 65.904 64.1479 65.904 64.1479C65.904 64.1479 64.532 62.5358 63.9832 63.0229C64.1639 65.4467 64.8287 67.8096 65.9383 69.9721L64.0312 73.1963L69.7113 75.1788Z" fill="white"/>
<path d="M123.967 110.391L130.052 111.242C130.052 111.242 125.6 148.972 124.289 153.63C122.979 158.288 121.799 161.635 117.327 161.862C112.854 162.088 96.9181 148.691 96.9181 148.691L96.1772 167.213L97.2131 174.896C97.2131 174.896 77.7238 185.138 57.9053 176.227L58.3512 167.213L51.2099 125.984L45.5916 106.405L63.7225 72.03L70.2944 75.46L58.701 106.748L61.9458 117.196L65.5747 115.742L69.5878 110.624C69.5878 110.624 76.393 107.091 85.0023 111.996L86.3743 116.291C86.3743 116.291 96.4722 117.052 113.519 140.685L123.967 110.391Z" fill="#3892D2"/>
<path opacity="0.2" d="M80.4678 110.391L81.2361 115.673C81.2361 115.673 86.9025 119.433 89.18 120.736C89.18 120.736 94.7503 155.914 90.6274 162.836L86.2851 169.634C86.2851 169.634 90.7235 169.634 92.7677 166.527C92.7677 166.527 90.2227 175.019 83.6234 177.304C83.6234 177.304 93.7556 176.247 97.2405 174.903L96.2046 167.219L97.8716 124.379C97.8716 124.379 99.4425 121.511 86.3811 116.373L84.4534 111.743L80.4678 110.391Z" fill="black"/>
<path d="M86.3537 86.1754C86.3537 86.1754 88.4803 89.2898 88.7341 91.0254C88.9879 92.761 88.2333 94.6749 89.6465 95.9166C91.0596 97.1582 91.7045 97.9746 91.1351 98.6606C90.5657 99.3466 89.8111 100.238 89.8111 100.238C89.8111 100.238 90.3873 106.117 89.475 107.359C88.5626 108.601 83.5959 107.359 83.5959 107.359V111.256" stroke="#263238" stroke-width="0.686" stroke-linecap="round" stroke-linejoin="round"/>
<path d="M83.596 99.9777C83.596 99.9777 81.6066 94.8395 80.118 96.0812C78.6294 97.3229 79.9533 104.114 83.596 102.626" stroke="#263238" stroke-width="0.686" stroke-linecap="round" stroke-linejoin="round"/>
<path d="M83.054 98.784C83.054 98.784 85.4207 98.592 83.9253 93.0422C82.4298 87.4925 85.6677 88.2402 89.1457 86.6624C92.6237 85.0846 93.4538 82.1897 92.7061 80.4541C91.9583 78.7185 90.7167 77.7993 86.3263 78.6294C86.3263 78.6294 81.5243 73.0796 76.8869 79.2125C76.8869 79.2125 66.446 79.0478 63.6334 84.0145C60.8208 88.9811 64.5458 101.658 70.0132 105.884C75.4806 110.11 80.8246 106.728 81.9359 102.756C81.9359 102.756 78.2109 100.746 80.118 96.1086C80.118 96.0812 81.8535 95.4638 83.054 98.784Z" fill="#263238"/>
<path d="M50.668 122.856C50.668 122.856 75.9333 104.533 97.9539 122.856L96.1772 167.185L97.2131 174.868C97.2131 174.868 78.595 183.587 57.9053 176.199L58.3512 167.185L50.668 122.856Z" stroke="#263238" stroke-width="0.686" stroke-linecap="round" stroke-linejoin="round"/>
<path d="M65.2385 116.195L69.5878 110.652C69.5878 110.652 78.1147 107.702 85.0022 112.024L86.3742 116.318" stroke="#263238" stroke-width="0.686" stroke-linecap="round" stroke-linejoin="round"/>
<path d="M97.954 122.856L119.954 148.155" stroke="#263238" stroke-width="0.686" stroke-linecap="round" stroke-linejoin="round"/>
<path d="M96.9387 148.176C96.9387 148.176 111.516 161.738 117.327 161.896C123.137 162.054 124.104 155.036 124.104 155.036L130.052 111.269L123.967 110.419L113.499 140.76" stroke="#263238" stroke-width="0.686" stroke-linecap="round" stroke-linejoin="round"/>
<path d="M129.949 111.132C129.949 111.132 130.71 106.186 132.693 105.061C134.676 103.936 137.029 99.5729 136.274 98.3175C135.519 97.0622 133.214 101.144 131.136 101.926C129.057 102.708 127.37 106.55 127.082 108.217" stroke="#263238" stroke-width="0.686" stroke-linecap="round" stroke-linejoin="round"/>
<path d="M135.636 98.1392C135.636 98.1392 135.636 92.4248 134.586 92.6923C133.537 92.9599 133.393 100.197 133.393 100.197" stroke="#263238" stroke-width="0.686" stroke-linecap="round" stroke-linejoin="round"/>
<path d="M132.624 100.931C132.624 100.931 131.938 97.7276 130.052 96.1635C128.165 94.5994 126.985 95.4432 127.198 95.9714C127.411 96.4997 130.628 100.773 130.553 102.228" stroke="#263238" stroke-width="0.686" stroke-linecap="round" stroke-linejoin="round"/>
<path d="M129.359 99.3465C129.359 99.3465 124.18 96.973 124.166 98.393C124.152 99.813 127.322 100.362 127.322 100.362L128.351 102.42C128.351 102.42 123.988 101.048 124.235 102.139C124.482 103.229 126.43 103.469 126.43 103.469C126.43 103.469 124.31 105.569 124.907 110.329" stroke="#263238" stroke-width="0.686" stroke-linecap="round" stroke-linejoin="round"/>
<path d="M94.2152 175.383L95.5392 184.658C95.5392 184.658 107.729 221.228 109.582 228.376C111.434 235.524 112.497 251.7 113.012 259.116C113.526 266.532 117.814 279.01 117.814 279.01C117.814 279.01 117.285 284.045 108.278 283.249C108.278 283.249 104.567 268.411 100.595 259.665C96.6231 250.918 96.04 237.651 96.04 237.651L76.6948 202.144C76.6948 202.144 72.7365 222.82 70.0749 230.496C67.3309 238.412 48.6236 282.337 49.9339 279.257C49.9339 279.257 47.2859 280.848 41.7019 276.87C41.7019 276.87 45.6738 263.623 46.7303 256.468C47.7867 249.313 53.357 232.883 53.357 232.883C53.357 232.883 54.681 201.883 56.787 192.341C56.787 192.341 55.415 181.831 58.3443 174.409C69.9546 178.201 82.4162 178.539 94.2152 175.383Z" fill="#263238"/>
<path d="M66.0962 195.915L74.781 198.439L76.0432 201.519" stroke="white" stroke-width="0.686" stroke-linecap="round" stroke-linejoin="round"/>
<path d="M108.47 282.166C108.47 282.166 107.297 288.045 108.258 289.252C108.765 289.883 110.275 289.766 111.002 289.78C112.676 289.814 114.356 289.705 116.03 289.595C119.378 289.375 122.808 289.41 126.039 288.374C128.761 287.556 131.361 286.377 133.77 284.868C135.087 283.99 133.77 282.57 133.77 282.57L117.821 278.989" stroke="#263238" stroke-width="0.686" stroke-linecap="round" stroke-linejoin="round"/>
<path d="M108.388 287.18C108.388 287.18 126.313 290.123 133.77 282.57" stroke="#263238" stroke-width="0.686" stroke-linecap="round" stroke-linejoin="round"/>
<path d="M42.3948 276.28C42.3948 276.28 40.3368 283.339 40.6386 285.561C40.9405 287.784 43.17 288.305 45.7768 288.244C48.3836 288.182 49.4537 287.016 49.8379 285.253C50.222 283.49 49.8379 277.789 49.8379 277.789" stroke="#263238" stroke-width="0.686" stroke-linecap="round" stroke-linejoin="round"/>
<path d="M40.6113 284.484L49.838 285.253" stroke="#263238" stroke-width="0.686" stroke-linecap="round" stroke-linejoin="round"/>
<path d="M64.6968 72.2496C65.4788 70.8227 65.9384 69.9515 65.9384 69.9515C65.9384 69.9515 63.3934 63.798 64.0313 63.0434C64.6693 62.2888 66.1442 64.4154 66.1442 64.4154C66.1442 64.4154 64.635 59.5243 65.5886 59.1058C66.5421 58.6873 68.2434 63.2218 68.2434 63.2218C68.2434 63.2218 67.7975 56.6705 68.7853 56.3618C69.7732 56.0531 70.9599 62.5907 70.9599 62.5907C70.9599 62.5907 72.2359 56.7734 73.0179 56.7185C73.8 56.6636 73.0179 68.7167 73.0179 68.7167C74.5957 69.4918 79.2331 67.5985 79.1919 69.1282C79.1508 70.658 70.2739 74.1772 70.2739 74.1772C70.1187 74.3787 69.9831 74.5946 69.8692 74.8221" stroke="#263238" stroke-width="0.686" stroke-linecap="round" stroke-linejoin="round"/>
<path d="M50.668 122.856L45.5916 106.405L63.7225 72.0506L70.2944 75.4875L58.701 106.776L61.9458 117.224" stroke="#263238" stroke-width="0.686" stroke-linecap="round" stroke-linejoin="round"/>
<path d="M51.2579 103.806C51.2579 103.806 57.7612 103.751 58.701 106.776C55.8522 106.618 53.0302 107.398 50.668 108.999" stroke="#263238" stroke-width="0.686" stroke-linecap="round" stroke-linejoin="round"/>
<path d="M72.7434 109.938V105.171" stroke="#263238" stroke-width="0.686" stroke-linecap="round" stroke-linejoin="round"/>
<path opacity="0.2" d="M97.8442 136.123L99.47 146.941C99.47 146.941 100.801 139.882 101.631 139.882C102.461 139.882 101.631 148.155 101.631 148.155C101.631 148.155 115.269 160.503 121.168 160.572C121.168 160.572 117.889 162.877 114.603 161.162C111.317 159.447 96.9113 148.128 96.9113 148.128L97.8442 136.123Z" fill="black"/>
<path opacity="0.2" d="M69.1282 74.877L56.6567 105.171C56.6567 105.171 52.3144 105.102 50.668 108.999L57.3359 107.805L59.5791 118.095L61.9458 117.196L58.701 106.749L70.2944 75.4601L69.1282 74.877Z" fill="black"/>
<path d="M240.999 128.152L236.087 117.663L216.783 130.415L232.712 158.637L245.135 151.585L240.999 128.152Z" fill="white"/>
<path d="M256.907 218.875C256.907 218.875 260.028 227.539 260.488 231.758C260.947 235.977 259.541 253.745 259.843 258.643C260.145 263.541 262.793 278.159 262.793 278.159C262.793 278.159 249.807 287.599 245.684 284.56C245.684 284.56 254.835 277.151 255.761 274.201L252.798 254.177L249.855 230.496C249.855 230.496 249.107 225.55 248.064 223.005C247.022 220.46 247.179 215.061 247.179 215.061L256.907 218.875Z" fill="white"/>
<path d="M256.633 218.107C256.633 218.107 260.008 227.231 260.797 233.782C261.585 240.333 259.212 255.192 259.994 262.347C260.776 269.502 261.579 273.46 262.964 277.226L262.278 288.278H260.502L259.816 282.008C259.816 282.008 257.03 280.848 255.343 284.862C253.655 288.875 247.42 289.403 244.463 287.077C244.463 287.077 244.463 285.28 246.686 283.695C248.908 282.111 254.712 277.158 255.768 274.201C255.768 274.201 252.599 253.621 251.858 246.953C251.117 240.285 249.958 228.164 248.476 224.253C246.994 220.343 247.001 214.752 247.001 214.752" stroke="#263238" stroke-width="0.686" stroke-linecap="round" stroke-linejoin="round"/>
<path d="M262.285 275.155C262.285 275.155 253.58 284.621 246.274 284.56" stroke="#263238" stroke-width="0.686" stroke-linecap="round" stroke-linejoin="round"/>
<path d="M245.684 284.56C246.892 284.694 248.114 284.541 249.251 284.114C251.22 283.428 258.306 279.998 261.791 275.669L262.861 276.883L262.299 288.024L260.509 288.278L259.823 282.008C259.823 282.008 257.531 280.958 256.056 283.538C254.581 286.117 253.518 287.887 250.939 288.456C248.359 289.026 244.47 287.084 244.47 287.084C244.47 287.084 243.791 286.062 245.684 284.56Z" fill="#263238"/>
<path d="M262.978 219.17C263.796 222.178 264.79 225.135 265.955 228.026C267.512 231.6 280.965 267.746 280.965 267.746C280.965 267.746 281.987 287.311 287.715 287.249C293.443 287.187 287.489 273.577 287.489 273.577L284.004 266.12C284.004 266.12 282.673 244.216 281.027 236.162L274.016 217.277L262.978 219.17Z" fill="white"/>
<path d="M274.091 217.908C274.091 217.908 279.847 231.004 281.034 236.162C282.22 241.321 283.414 264.528 284.011 266.12C284.608 267.711 294.129 284.567 288.374 287.942C282.618 291.317 281.26 268.5 281.26 268.5C281.26 268.5 267.972 231.594 265.983 228.026C263.993 224.459 261.819 214.135 261.819 214.135L274.091 217.908Z" stroke="#263238" stroke-width="0.686" stroke-linecap="round" stroke-linejoin="round"/>
<path d="M289.492 279.291C289.492 279.291 289.094 283.86 287.585 284.505C286.076 285.15 282.742 279.998 282.742 279.998" stroke="#263238" stroke-width="0.686" stroke-linecap="round" stroke-linejoin="round"/>
<path d="M282.755 280.787C282.755 280.787 284.813 288.58 287.557 288.25C290.301 287.921 290.795 283.592 289.499 280.252C289.499 280.252 289.039 283.682 287.592 284.505C286.131 284.525 282.755 280.787 282.755 280.787Z" fill="#263238"/>
<path d="M258.464 149.788C258.464 149.788 265.4 159.255 270.208 174.484C275.017 189.713 274.523 218.882 274.523 218.882C274.523 218.882 256.626 224.638 239.277 217.325L242.453 151.606C242.453 151.606 253.614 151.812 258.464 149.788Z" fill="#263238"/>
<path d="M249.505 81.1332C249.505 81.1332 244.113 86.1822 243.482 89.4887C242.961 91.8031 242.126 94.0351 240.999 96.1223C241.578 97 242.429 97.6647 243.42 98.0157C243.42 98.0157 243.77 104.787 245.739 105.308L250.445 104.073L250.946 106.975L257.696 104.409V100.499L262.841 97.1376L261.009 88.35L252.64 84.4398L249.505 81.1332Z" fill="white"/>
<path d="M242.419 151.078L241.822 141.584C241.822 141.584 237.431 133.352 238.824 130.361C240.361 127.075 249.594 114.905 249.594 114.905L248.689 108.264L261.627 102.722L262.244 108.264L260.68 109.424L262.416 113.142C262.416 113.142 262.525 112.037 265.53 117.642C268.535 123.247 279.854 143.189 280.745 147.017C281.637 150.845 263.143 164.331 256.9 167.514C256.9 167.514 256.18 165.971 248.764 171.63C246.878 171.301 244.271 169.607 243.715 168.557C243.16 167.507 245.849 165.01 245.849 165.01C245.849 165.01 247.468 161.951 250.328 164.4H253.374L270.805 148.176L261.97 135.245L258.464 149.767C258.464 149.767 247.125 153.211 242.419 151.078Z" fill="white"/>
<path d="M248.689 108.265L249.615 115.049L262.244 108.265L261.627 102.722L248.689 108.265Z" stroke="#263238" stroke-width="0.686" stroke-linecap="round" stroke-linejoin="round"/>
<path d="M249.615 115.049C249.615 115.049 238.124 129.105 238.433 131.877C238.742 134.648 241.822 141.584 241.822 141.584L242.453 151.599C242.453 151.599 251.748 151.853 258.464 149.788L261.97 135.265" stroke="#263238" stroke-width="0.686" stroke-linecap="round" stroke-linejoin="round"/>
<path d="M270.805 148.176L253.004 121.34C253.004 121.34 251.254 115.166 255.466 112.964C259.678 110.762 263.342 113.554 264.652 115.022C265.962 116.49 280.094 143.717 280.752 146.989C281.411 150.261 266.483 163.35 257.847 166.883C257.847 166.883 253.916 169.243 253.916 164.4L270.805 148.176Z" stroke="#263238" stroke-width="0.686" stroke-linecap="round" stroke-linejoin="round"/>
<path d="M262.244 113.142L260.577 109.163" stroke="#263238" stroke-width="0.686" stroke-linecap="round" stroke-linejoin="round"/>
<path d="M253.916 164.427H250.335C250.335 164.427 247.543 161.93 246.219 164.427C244.895 166.924 243.221 167.418 243.722 168.585C244.223 169.751 247.09 172.076 248.771 171.658C250.452 171.239 255.192 167.384 255.192 167.384" stroke="#263238" stroke-width="0.686" stroke-linecap="round" stroke-linejoin="round"/>
<path d="M248.215 82.91C248.215 82.91 244.01 86.5869 243.544 88.6244C243.077 90.6618 243.276 94.1123 240.999 96.1223C240.999 96.1223 241.115 97.7687 243.42 98.0157C243.42 98.0157 244.6 104.512 245.739 105.308C246.878 106.104 253.847 102.509 256.578 101.027C257.274 100.55 257.781 99.8434 258.011 99.031" stroke="#263238" stroke-width="0.686" stroke-linecap="round" stroke-linejoin="round"/>
<path d="M244.95 99.9982C246.239 99.7807 247.402 99.0941 248.215 98.0706" stroke="#263238" stroke-width="0.686" stroke-linecap="round" stroke-linejoin="round"/>
<path d="M244.95 90.6C244.95 90.6 246.61 89.6327 247.522 91.238" stroke="#263238" stroke-width="0.686" stroke-linecap="round" stroke-linejoin="round"/>
<path d="M246.089 94.0506C246.089 94.6062 245.931 95.059 245.677 95.0727C245.423 95.0864 245.19 94.6474 245.163 94.0986C245.135 93.5498 245.32 93.0833 245.574 93.0696C245.828 93.0559 246.061 93.4949 246.089 94.0506Z" fill="#263238"/>
<path d="M250.445 104.073L251.001 107.277" stroke="#263238" stroke-width="0.686" stroke-linecap="round" stroke-linejoin="round"/>
<path d="M255.837 93.6253C255.837 93.6253 256.866 91.629 258.011 92.7952C259.157 93.9614 261.332 99.3534 255.466 98.0706C255.466 98.0706 255.075 101.363 258.011 102.187C260.948 103.01 266.525 98.4684 266.71 90.7235C266.895 82.9786 259.418 77.7512 255.466 79.2467C255.466 79.2467 249.738 70.267 244.058 74.0949C238.378 77.9227 242.206 83.8155 240.999 85.1463C239.791 86.4772 237.212 85.2286 237.13 88.8027C237.047 92.3768 243.022 92.0132 243.022 92.0132L243.743 88.0755L248.689 82.91C248.689 82.91 247.523 86.6418 249.505 89.8866C251.296 92.8089 255.837 93.6253 255.837 93.6253Z" fill="#263238"/>
<path d="M266.71 90.7235C266.71 90.7235 269.454 91.3409 269.152 95.0522C268.85 98.7634 262.656 107.887 263.122 113.142L279.113 142.942C279.113 142.942 286.309 141.57 285.973 134.161C285.637 126.752 276.856 120.51 278.55 115.049C280.245 109.589 286.899 95.6833 277.473 87.712C268.048 79.7406 253.354 91.9583 253.354 91.9583L260.55 89.6396L266.71 90.7235Z" fill="#263238"/>
<path d="M240.381 127.541L236.087 117.663L216.783 130.415L232.712 158.637L242.371 153.321" stroke="#263238" stroke-width="0.686" stroke-linecap="round" stroke-linejoin="round"/>
<path d="M222.792 144.376C222.792 144.376 221.75 142.222 223.142 141.035C224.535 139.848 229.316 136.329 229.316 137.193C229.348 137.403 229.335 137.617 229.278 137.822C229.221 138.026 229.122 138.216 228.987 138.38C227.615 140.218 224.329 143.182 224.542 143.422C224.542 143.422 230.537 139.443 231.113 139.821C231.257 139.917 231.175 140.431 230.674 140.932C229.031 142.394 227.297 143.751 225.481 144.993C225.481 144.993 231.806 142.544 232.623 142.935C232.856 143.045 232.808 143.401 232.074 143.847C230.237 144.846 228.348 145.743 226.414 146.536L227.999 149.184C227.999 149.184 225.008 149.706 222.792 144.376Z" fill="white" stroke="#263238" stroke-width="0.686" stroke-linecap="round" stroke-linejoin="round"/>
<path d="M257.257 99.9982L257.696 104.409" stroke="#263238" stroke-width="0.686" stroke-linejoin="round"/>
</svg>
