<svg width="27" height="11" viewBox="0 0 27 11" fill="none" xmlns="http://www.w3.org/2000/svg">
<path d="M3.81113 11C1.92395 11 0.462666 9.86916 0.146911 8.18758H1.79911C2.04878 9.05407 2.85652 9.63418 3.83316 9.63418C5.48536 9.63418 6.45465 8.10681 6.45465 5.43391C6.45465 5.43391 6.44731 5.43391 6.43997 5.43391H6.43263H6.42528C5.99938 6.47664 4.88323 7.16689 3.51741 7.16689C1.50539 7.16689 4.87629e-05 5.67623 4.87629e-05 3.66422C4.87629e-05 1.54206 1.63022 0 3.86988 0C5.4413 0 6.70432 0.800401 7.38723 2.22497C7.82048 3.06943 8.04077 4.11215 8.04077 5.35314C8.04077 8.89987 6.46934 11 3.81113 11ZM3.86988 5.8231C5.16961 5.8231 6.1389 4.89052 6.1389 3.64219C6.1389 2.38652 5.15492 1.40254 3.8919 1.40254C2.62889 1.40254 1.63757 2.37917 1.63757 3.61282C1.63757 4.88318 2.58483 5.8231 3.86988 5.8231ZM10.3615 9.16422C9.82544 9.16422 9.39954 8.73832 9.39954 8.20227C9.39954 7.66622 9.82544 7.24032 10.3615 7.24032C10.8975 7.24032 11.3234 7.66622 11.3234 8.20227C11.3234 8.73832 10.8975 9.16422 10.3615 9.16422ZM10.3615 3.81108C9.82544 3.81108 9.39954 3.39252 9.39954 2.84913C9.39954 2.31308 9.82544 1.88718 10.3615 1.88718C10.8975 1.88718 11.3234 2.31308 11.3234 2.84913C11.3234 3.39252 10.8975 3.81108 10.3615 3.81108ZM17.8958 10.8017V8.70895H12.5941V7.26969C13.5046 5.55874 14.7089 3.65688 17.0954 0.205607H19.4746V7.32844H20.9285V8.70895H19.4746V10.8017H17.8958ZM14.1288 7.31375V7.35047H17.9105V1.47597H17.8811C16.0454 4.12684 14.9733 5.77904 14.1288 7.31375ZM24.549 10.8017V1.83578H24.5123L21.7439 3.80374V2.18825L24.5343 0.205607H26.1571V10.8017H24.549Z" fill="#363536"/>
</svg>
